<svg width="32" height="32" viewBox="0 0 32 32" fill="none" xmlns="http://www.w3.org/2000/svg">
    <path d="M11 16C13.9016 16 16.25 13.6516 16.25 10.75C16.25 7.84844 13.9016 5.5 11 5.5C8.09844 5.5 5.75 7.84844 5.75 10.75C5.75 13.6516 8.09844 16 11 16ZM14.6 17.5H14.2109C13.2359 17.9688 12.1531 18.25 11 18.25C9.84688 18.25 8.76875 17.9688 7.78906 17.5H7.4C4.41875 17.5 2 19.9188 2 22.9V24.25C2 25.4922 3.00781 26.5 4.25 26.5H17.75C18.9922 26.5 20 25.4922 20 24.25V22.9C20 19.9188 17.5812 17.5 14.6 17.5ZM24.5 16C26.9844 16 29 13.9844 29 11.5C29 9.01562 26.9844 7 24.5 7C22.0156 7 20 9.01562 20 11.5C20 13.9844 22.0156 16 24.5 16ZM26.75 17.5H26.5719C25.9203 17.725 25.2313 17.875 24.5 17.875C23.7687 17.875 23.0797 17.725 22.4281 17.5H22.25C21.2938 17.5 20.4125 17.7766 19.6391 18.2219C20.7828 19.4547 21.5 21.0906 21.5 22.9V24.7C21.5 24.8031 21.4766 24.9016 21.4719 25H29.75C30.9922 25 32 23.9922 32 22.75C32 19.8484 29.6516 17.5 26.75 17.5Z"
          fill="#ADBCD9"/>
</svg>
