<svg width="32" height="33" viewBox="0 0 32 33" fill="none" xmlns="http://www.w3.org/2000/svg">
    <path d="M10.0789 14.5185C10.2603 16.9617 11.2079 15.9086 11.4034 16.9792C11.7284 18.7589 13.265 20.0461 14.2215 20.4907C14.7795 20.75 15.3542 20.8801 15.9583 20.8904V20.891C15.9604 20.891 15.9625 20.8907 15.9646 20.8907C15.9667 20.8907 15.9688 20.891 15.9709 20.891V20.8904C16.575 20.8801 17.1496 20.75 17.7078 20.4907C18.6643 20.0461 20.2009 18.7589 20.5259 16.9792C20.7214 15.9086 21.669 16.9617 21.8504 14.5185C21.8504 13.5448 21.333 13.3025 21.333 13.3025C21.333 13.3025 21.596 11.8613 21.699 10.7523C21.8267 9.37023 20.9123 5.80005 16.0351 5.80005C16.0138 5.80005 15.994 5.80124 15.9732 5.80148C15.9724 5.80148 15.9717 5.80148 15.971 5.80142V5.80118C15.9689 5.80124 15.9668 5.8013 15.9647 5.8013C15.9626 5.8013 15.9605 5.80124 15.9584 5.80118V5.80148C15.9577 5.80154 15.957 5.80154 15.9562 5.80154C15.9354 5.80124 15.9156 5.80011 15.8943 5.80011C11.0171 5.80011 10.1027 9.37029 10.2303 10.7523C10.3333 11.8613 10.5964 13.3025 10.5964 13.3025C10.5964 13.3025 10.0789 13.5448 10.0789 14.5185Z"
          fill="#ADBCD9"/>
    <path d="M20.8316 22.0722C21.0027 22.1288 24.5684 23.7317 27.0284 25.015C28.1332 25.5913 28.7999 26.3081 28.7999 27.0625V29C28.7999 31.2092 27.0091 33 24.7999 33H16.0527H16.0416H16.0352H16.0291H16.0179H16H15.982H15.9709H15.9643H15.9582H15.9471H7.19995C4.99081 33 3.19995 31.2092 3.19995 29V27.0625C3.19995 26.3081 3.86671 25.5913 4.97149 25.015C7.43153 23.7317 10.9972 22.1288 11.1683 22.0722L11.1735 22.0707C11.2736 22.0342 11.3812 22.0139 11.4935 22.0139C11.9115 22.0139 12.266 22.2886 12.3975 22.671L12.3996 22.6698C13.0346 24.239 13.6757 27.0357 14.4 28.3844L15.8193 31.3759C15.8915 31.5282 16.1084 31.5282 16.1806 31.3759L17.6 28.3844C18.3242 27.0357 18.9653 24.2388 19.6003 22.6698L19.6024 22.671C19.7339 22.2884 20.0884 22.0139 20.5064 22.0139C20.6187 22.0139 20.7263 22.0342 20.8264 22.0707L20.8316 22.0722Z"
          fill="#ADBCD9"/>
    <path d="M16.1601 25.4901C16.0814 25.5719 15.9506 25.5719 15.8719 25.4901L12.8778 22.3786C12.7555 22.2515 12.8456 22.0399 13.0219 22.0399L19.0101 22.0399C19.1864 22.0399 19.2765 22.2515 19.1542 22.3786L16.1601 25.4901Z"
          fill="#ADBCD9"/>
    <path d="M16.1696 28.0156C16.0897 28.1115 15.9423 28.1115 15.8623 28.0156L12.4787 23.9552C12.4043 23.8659 12.5162 23.743 12.612 23.8087L15.9029 26.0652C15.971 26.112 16.0609 26.112 16.1291 26.0652L19.4199 23.8087C19.5157 23.743 19.6277 23.8659 19.5533 23.9552L16.1696 28.0156Z"
          fill="#ADBCD9"/>
    <path fill-rule="evenodd" clip-rule="evenodd"
          d="M8.96818 4.46456C8.81713 3.66109 8.04061 3.13034 7.23715 3.28138C6.43372 3.43242 5.90297 4.20898 6.05401 5.01244C6.17007 5.62977 6.65555 6.08571 7.23861 6.1955L7.8845 9.63119L7.88451 9.63122L23.1354 6.76413L22.4888 3.32464C22.9867 3.00905 23.2693 2.41144 23.154 1.79778C23.0029 0.994314 22.2264 0.463523 21.4229 0.614497C20.6195 0.765544 20.0887 1.5421 20.2398 2.34553C20.3321 2.83668 20.6583 3.22553 21.0814 3.41945L20.2909 4.62681C19.9294 5.17898 19.3732 5.55019 18.7246 5.67211C18.0761 5.79404 17.4229 5.65015 16.8856 5.26699L15.6737 4.40273C15.9721 4.07069 16.1186 3.60857 16.0299 3.13696C15.8789 2.33349 15.1023 1.80274 14.2989 1.95378C13.4954 2.10483 12.9647 2.88138 13.1157 3.68481C13.2079 4.1752 13.5333 4.56359 13.9554 4.75779L13.1639 5.96665C12.8025 6.51877 12.2463 6.89001 11.5977 7.01194C10.9491 7.13387 10.296 6.98998 9.75868 6.60682L8.579 5.76557C8.89944 5.43151 9.06003 4.95318 8.96818 4.46456ZM23.603 9.25083L23.3229 7.76089L8.07206 10.628L8.35216 12.1179C8.4039 12.3932 8.66903 12.5744 8.9443 12.5226L23.1983 9.84296C23.4736 9.79122 23.6548 9.52609 23.603 9.25083Z"
          fill="#BBCBEB"/>
</svg>
