<svg width="32" height="33" viewBox="0 0 32 33" fill="none" xmlns="http://www.w3.org/2000/svg">
    <path d="M10.079 14.5185C10.2604 16.9617 11.208 15.9086 11.4035 16.9792C11.7285 18.7589 13.2651 20.0461 14.2216 20.4907C14.7796 20.75 15.3543 20.8801 15.9585 20.8904V20.891C15.9606 20.891 15.9627 20.8907 15.9647 20.8907C15.9668 20.8907 15.9689 20.891 15.971 20.891V20.8904C16.5752 20.8801 17.1498 20.75 17.7079 20.4907C18.6644 20.0461 20.201 18.7589 20.526 16.9792C20.7215 15.9086 21.6691 16.9617 21.8505 14.5185C21.8505 13.5448 21.3331 13.3025 21.3331 13.3025C21.3331 13.3025 21.5961 11.8613 21.6992 10.7523C21.8268 9.37023 20.9125 5.80005 16.0352 5.80005C16.0139 5.80005 15.9941 5.80124 15.9733 5.80148C15.9725 5.80148 15.9718 5.80148 15.9711 5.80142V5.80118C15.969 5.80124 15.9669 5.8013 15.9648 5.8013C15.9627 5.8013 15.9606 5.80124 15.9585 5.80118V5.80148C15.9578 5.80154 15.9571 5.80154 15.9563 5.80154C15.9355 5.80124 15.9157 5.80011 15.8944 5.80011C11.0172 5.80011 10.1028 9.37029 10.2305 10.7523C10.3334 11.8613 10.5965 13.3025 10.5965 13.3025C10.5965 13.3025 10.079 13.5448 10.079 14.5185Z"
          fill="#4A4E65"/>
    <path d="M20.8317 22.0722C21.0028 22.1288 24.5684 23.7317 27.0285 25.015C28.1332 25.5913 28.8 26.3081 28.8 27.0625V29C28.8 31.2092 27.0091 33 24.8 33H16.0528H16.0417H16.0352H16.0291H16.018H16H15.9821H15.971H15.9644H15.9583H15.9472H7.20001C4.99087 33 3.20001 31.2092 3.20001 29V27.0625C3.20001 26.3081 3.86677 25.5913 4.97155 25.015C7.43159 23.7317 10.9973 22.1288 11.1683 22.0722L11.1736 22.0707C11.2736 22.0342 11.3812 22.0139 11.4936 22.0139C11.9116 22.0139 12.2661 22.2886 12.3976 22.671L12.3997 22.6698C13.0347 24.239 13.6758 27.0357 14.4 28.3844L15.8193 31.3759C15.8916 31.5282 16.1084 31.5282 16.1807 31.3759L17.6 28.3844C18.3242 27.0357 18.9654 24.2388 19.6003 22.6698L19.6024 22.671C19.7339 22.2884 20.0885 22.0139 20.5064 22.0139C20.6188 22.0139 20.7264 22.0342 20.8265 22.0707L20.8317 22.0722Z"
          fill="#4A4E65"/>
    <path d="M16.1601 25.4901C16.0814 25.5719 15.9506 25.5719 15.8719 25.4901L12.8778 22.3786C12.7555 22.2515 12.8456 22.0399 13.0219 22.0399L19.0101 22.0399C19.1864 22.0399 19.2765 22.2515 19.1542 22.3786L16.1601 25.4901Z"
          fill="#4A4E65"/>
    <path d="M16.1696 28.0156C16.0897 28.1115 15.9423 28.1115 15.8623 28.0156L12.4787 23.9552C12.4043 23.8659 12.5162 23.743 12.612 23.8087L15.9029 26.0652C15.971 26.112 16.0609 26.112 16.1291 26.0652L19.4199 23.8087C19.5157 23.743 19.6277 23.8659 19.5533 23.9552L16.1696 28.0156Z"
          fill="#4A4E65"/>
    <path fill-rule="evenodd" clip-rule="evenodd"
          d="M8.96818 4.46456C8.81713 3.66109 8.04061 3.13034 7.23715 3.28138C6.43372 3.43242 5.90297 4.20898 6.05401 5.01244C6.17007 5.62977 6.65555 6.08571 7.23861 6.1955L7.8845 9.63119L7.88451 9.63122L23.1354 6.76413L22.4888 3.32464C22.9867 3.00905 23.2693 2.41144 23.154 1.79778C23.0029 0.994314 22.2264 0.463523 21.4229 0.614497C20.6195 0.765544 20.0887 1.5421 20.2398 2.34553C20.3321 2.83668 20.6583 3.22553 21.0814 3.41945L20.2909 4.62681C19.9294 5.17898 19.3732 5.55019 18.7246 5.67211C18.0761 5.79404 17.4229 5.65015 16.8856 5.26699L15.6737 4.40273C15.9721 4.07069 16.1186 3.60857 16.0299 3.13696C15.8789 2.33349 15.1023 1.80274 14.2989 1.95378C13.4954 2.10483 12.9647 2.88138 13.1157 3.68481C13.2079 4.1752 13.5333 4.56359 13.9554 4.75779L13.1639 5.96665C12.8025 6.51877 12.2463 6.89001 11.5977 7.01194C10.9491 7.13387 10.296 6.98998 9.75868 6.60682L8.579 5.76557C8.89944 5.43151 9.06004 4.95317 8.96818 4.46456ZM23.603 9.25083L23.3229 7.76089L8.07206 10.628L8.35216 12.1179C8.4039 12.3932 8.66903 12.5744 8.9443 12.5226L23.1983 9.84296C23.4736 9.79122 23.6548 9.52609 23.603 9.25083Z"
          fill="#FFD500"/>
</svg>
