<svg width="32" height="32" viewBox="0 0 32 32" fill="none" xmlns="http://www.w3.org/2000/svg">
    <rect x="23" y="10" width="1" height="15" rx="0.5" fill="black"/>
    <g clip-path="url(#clip0)">
        <path d="M24 18.2488C26.6663 15.6492 29.3337 20.8484 32 18.2488C32 17.1653 32 16.0829 32 14.9993C29.3337 17.5989 26.6663 12.3997 24 14.9993C24 16.0829 24 17.1665 24 18.2488Z"
              fill="#EDD421"/>
        <path d="M24 14.9986C26.6663 12.399 29.3337 17.5982 32 14.9986C32 13.915 32 12.8327 32 11.7491C29.3337 14.3487 26.6663 9.1495 24 11.7491C24 12.8327 24 13.9163 24 14.9986Z"
              fill="#1072BA"/>
    </g>
    <path d="M10.4491 10.8708C10.6192 13.0765 11.5076 12.1257 11.6908 13.0923C11.9955 14.699 13.4361 15.861 14.3328 16.2624C14.8559 16.4965 15.3947 16.6139 15.9611 16.6233V16.6238C15.9631 16.6238 15.965 16.6235 15.967 16.6235C15.969 16.6235 15.9709 16.6238 15.9729 16.6238V16.6233C16.5393 16.6139 17.078 16.4965 17.6012 16.2624C18.4979 15.861 19.9385 14.699 20.2432 13.0923C20.4265 12.1258 21.3148 13.0765 21.4849 10.8708C21.4849 9.99177 20.9999 9.77302 20.9999 9.77302C20.9999 9.77302 21.2464 8.47193 21.343 7.47077C21.4627 6.22308 20.6055 3 16.0331 3C16.0131 3 15.9945 3.00108 15.975 3.00129C15.9743 3.00129 15.9737 3.00129 15.9729 3.00124V3.00102C15.971 3.00108 15.969 3.00113 15.9671 3.00113C15.9651 3.00113 15.9631 3.00108 15.9612 3.00102V3.00129C15.9605 3.00135 15.9598 3.00135 15.9591 3.00135C15.9396 3.00108 15.9211 3.00005 15.901 3.00005C11.3287 3.00005 10.4714 6.22314 10.5911 7.47083C10.6876 8.47198 10.9343 9.77307 10.9343 9.77307C10.9343 9.77307 10.4491 9.99177 10.4491 10.8708Z"
          fill="black"/>
    <path d="M26.3392 21.7914C24.0329 20.6329 20.6901 19.1858 20.5297 19.1347C20.5279 19.1341 20.5265 19.134 20.5248 19.1334C20.431 19.1004 20.3301 19.0821 20.2248 19.0821C19.8329 19.0821 19.5006 19.3299 19.3773 19.6754L19.3753 19.6742C18.78 21.0907 17.6866 23.6157 17.0076 24.8333L16.8441 21.4198C16.8441 21.4198 17.8637 19.2829 17.9753 19.0871C18.2381 18.6282 18.0014 18.2375 17.5089 18.2375C17.2645 18.2375 16.6533 18.2375 16.0411 18.2375H16.039C16.0351 18.2375 16.0312 18.2375 16.0272 18.2375H16.0252C16.0168 18.2375 16.0084 18.2375 16 18.2375C15.9916 18.2375 15.9832 18.2375 15.9748 18.2375H15.9727C15.9688 18.2375 15.9649 18.2375 15.9609 18.2375H15.9589C15.3467 18.2375 14.7355 18.2375 14.4911 18.2375C13.9985 18.2375 13.7619 18.6282 14.0246 19.0871C14.1363 19.2829 15.1559 21.4198 15.1559 21.4198L14.9924 24.8333C14.3134 23.6157 13.22 21.0909 12.6247 19.6742L12.6227 19.6754C12.4994 19.3301 12.1671 19.0821 11.7752 19.0821C11.6699 19.0821 11.569 19.1004 11.4752 19.1334C11.4735 19.1341 11.4721 19.1342 11.4703 19.1347C11.3099 19.1858 7.9671 20.6329 5.66081 21.7914C4.62509 22.3117 4 22.9588 4 23.6399C4 24.0711 4 24.5338 4 25.0001C4 27.2092 5.79086 29.0001 8 29.0001H15.9505H15.9609H15.9666H15.9728H15.9832H16H16.0169H16.0273H16.033H16.0391H16.0495H24C26.2091 29.0001 28 27.2092 28 25.0001C28 24.5338 28 24.0711 28 23.6399C27.9999 22.9588 27.3749 22.3117 26.3392 21.7914Z"
          fill="black"/>
    <defs>
        <clipPath id="clip0">
            <rect width="8" height="8" fill="white" transform="matrix(-1 0 0 1 32 11)"/>
        </clipPath>
    </defs>
</svg>
