<svg width="32" height="32" viewBox="0 0 32 32" fill="none" xmlns="http://www.w3.org/2000/svg">
    <path d="M27.4193 11.0986C27.047 10.2966 26.51 9.56975 25.8386 8.95886C25.1667 8.34616 24.3745 7.85925 23.505 7.52462C22.6035 7.17624 21.6365 6.99793 20.6602 7.00002C19.2906 7.00002 17.9544 7.34889 16.7931 8.00787C16.5153 8.1655 16.2514 8.33865 16.0014 8.5273C15.7513 8.33865 15.4874 8.1655 15.2096 8.00787C14.0484 7.34889 12.7121 7.00002 11.3425 7.00002C10.3563 7.00002 9.40062 7.17575 8.49774 7.52462C7.62542 7.86057 6.83921 8.34382 6.16414 8.95886C5.49183 9.56906 4.95477 10.296 4.5834 11.0986C4.19724 11.9333 4 12.8197 4 13.7319C4 14.5925 4.18891 15.4892 4.56395 16.4014C4.87788 17.1638 5.32793 17.9546 5.903 18.7531C6.81421 20.0168 8.06713 21.3347 9.62287 22.6708C12.2009 24.8855 14.754 26.4153 14.8624 26.4773L15.5208 26.8701C15.8125 27.0433 16.1875 27.0433 16.4792 26.8701L17.1376 26.4773C17.246 26.4127 19.7963 24.8855 22.3771 22.6708C23.9328 21.3347 25.1858 20.0168 26.097 18.7531C26.672 17.9546 27.1249 17.1638 27.436 16.4014C27.8111 15.4892 28 14.5925 28 13.7319C28.0028 12.8197 27.8055 11.9333 27.4193 11.0986Z"
          fill="#ADBCD9"/>
</svg>
