<svg width="205" height="52" viewBox="0 0 205 52" fill="none" xmlns="http://www.w3.org/2000/svg">
<path d="M74.309 32.1852C74.309 33.787 74.0079 35.2121 73.4071 36.4576C72.8064 37.703 71.9961 38.7 70.9808 39.4486C69.964 40.1955 68.8448 40.7565 67.6247 41.13C66.4045 41.5035 65.1223 41.691 63.778 41.691H56.7754V22.7856H63.5653C64.6799 22.7856 65.7355 22.8794 66.7352 23.0654C67.7333 23.2529 68.702 23.5779 69.6396 24.0405C70.5772 24.503 71.386 25.0812 72.0675 25.7766C72.7474 26.4705 73.2923 27.3659 73.699 28.4598C74.1057 29.5552 74.309 30.7975 74.309 32.1852ZM69.5868 32.1852C69.5868 31.171 69.4192 30.2944 69.0823 29.5552C68.7455 28.8161 68.2813 28.2425 67.6899 27.8331C67.0969 27.4237 66.4527 27.1299 65.7541 26.9518C65.0556 26.7736 64.2903 26.6845 63.4598 26.6845H61.2058V37.739H63.3542C65.1751 37.739 66.67 37.303 67.8373 36.431C69.0032 35.559 69.5868 34.1432 69.5868 32.1852Z" fill="white"/>
<path d="M79.2426 32.5856L77.0413 30.2088C78.6154 28.7133 80.5776 27.9663 82.9294 27.9663C85.1042 27.9663 86.6596 28.5226 87.5973 29.6353C88.5349 30.7479 89.0037 32.5325 89.0037 34.989V41.6914H85.025V40.2756H84.9459C84.6276 40.81 84.1231 41.2335 83.4339 41.5445C82.7446 41.8555 82.0011 42.0117 81.2063 42.0117C80.4285 42.0117 79.6989 41.8914 79.0175 41.6508C78.336 41.4101 77.7306 40.9616 77.1997 40.3022C76.6688 39.6443 76.4033 38.8254 76.4033 37.8456C76.4033 34.8546 79.2332 33.3591 84.8915 33.3591V33.1451C84.8915 32.5215 84.6695 32.0465 84.2287 31.7168C83.7863 31.387 83.2119 31.2229 82.504 31.2229C81.3025 31.2245 80.2143 31.6777 79.2426 32.5856ZM85.025 36.3517V35.8969H84.4677C81.762 35.8969 80.4099 36.5017 80.4099 37.7128C80.4099 38.1753 80.5962 38.5191 80.9672 38.741C81.3382 38.9645 81.7806 39.0755 82.2929 39.0755C83.1591 39.0755 83.8313 38.8317 84.3094 38.341C84.786 37.8519 85.025 37.1877 85.025 36.3517Z" fill="white"/>
<path d="M99.9584 31.6775H96.8552V36.7515C96.8552 37.3922 96.9794 37.8641 97.2263 38.1673C97.4731 38.4705 97.8984 38.622 98.4992 38.622C99.0114 38.622 99.4368 38.5517 99.7721 38.408L99.8249 41.6115C99.0999 41.8787 98.2601 42.0115 97.3054 42.0115C95.6258 42.0115 94.4227 41.6021 93.6978 40.7832C92.9728 39.9644 92.6096 38.7986 92.6096 37.2859V31.679H90.4875V28.3943H92.5832V24.897H96.8537V28.3943H99.9568V31.6775H99.9584Z" fill="white"/>
<path d="M104.176 32.5856L101.975 30.2088C103.549 28.7133 105.511 27.9663 107.863 27.9663C110.038 27.9663 111.593 28.5226 112.531 29.6353C113.468 30.7479 113.937 32.5325 113.937 34.989V41.6914H109.958V40.2756H109.879C109.561 40.81 109.056 41.2335 108.367 41.5445C107.678 41.8555 106.934 42.0117 106.14 42.0117C105.362 42.0117 104.632 41.8914 103.951 41.6508C103.269 41.4101 102.664 40.9616 102.133 40.3022C101.602 39.6443 101.337 38.8254 101.337 37.8456C101.337 34.8546 104.167 33.3591 109.825 33.3591V33.1451C109.825 32.5215 109.603 32.0465 109.162 31.7168C108.72 31.387 108.145 31.2229 107.437 31.2229C106.236 31.2245 105.148 31.6777 104.176 32.5856ZM109.958 36.3517V35.8969H109.401C106.695 35.8969 105.343 36.5017 105.343 37.7128C105.343 38.1753 105.53 38.5191 105.901 38.741C106.272 38.9645 106.714 39.0755 107.226 39.0755C108.092 39.0755 108.765 38.8317 109.243 38.341C109.719 37.8519 109.958 37.1877 109.958 36.3517Z" fill="white"/>
<path d="M143.938 32.1586C143.938 35.1324 142.974 37.5483 141.046 39.4079C139.118 41.2691 136.67 42.1989 133.699 42.1989C130.745 42.1989 128.304 41.2691 126.378 39.4079C124.45 37.5483 123.486 35.1308 123.486 32.1586C123.486 29.1676 124.445 26.7736 126.364 24.9765C128.283 23.1794 130.728 22.2793 133.699 22.2793C136.687 22.2793 139.141 23.1778 141.06 24.9765C142.979 26.7736 143.938 29.1676 143.938 32.1586ZM139.084 32.1586C139.084 30.485 138.579 29.1051 137.572 28.019C136.564 26.933 135.273 26.3907 133.699 26.3907C132.125 26.3907 130.838 26.9345 129.84 28.019C128.84 29.1051 128.342 30.485 128.342 32.1586C128.342 33.8682 128.841 35.2746 129.84 36.3779C130.838 37.4811 132.125 38.0327 133.699 38.0327C135.273 38.0327 136.563 37.4811 137.572 36.3779C138.579 35.2746 139.084 33.8682 139.084 32.1586Z" fill="white"/>
<path d="M158.474 29.755L155.954 32.6929C155.725 32.3725 155.392 32.1147 154.959 31.9178C154.526 31.7224 154.089 31.624 153.646 31.624C152.744 31.624 152.01 31.9584 151.445 32.6257C150.878 33.2929 150.596 34.0993 150.596 35.0416C150.596 35.9854 150.878 36.7871 151.445 37.445C152.01 38.1044 152.761 38.4326 153.699 38.4326C154.725 38.4326 155.512 38.1029 156.06 37.445L158.474 40.4094C157.306 41.5486 155.68 42.119 153.593 42.119C151.454 42.119 149.685 41.4783 148.289 40.1969C146.892 38.9155 146.193 37.1981 146.193 35.0431C146.193 32.9241 146.897 31.2161 148.301 29.916C149.708 28.6174 151.462 27.9673 153.567 27.9673C154.505 27.9673 155.428 28.1314 156.339 28.4611C157.249 28.7893 157.96 29.2206 158.474 29.755Z" fill="white"/>
<path d="M173.46 35.2027C173.46 35.684 173.451 36.0309 173.434 36.2435H163.857C163.927 36.9561 164.273 37.5514 164.891 38.0327C165.511 38.5141 166.217 38.7531 167.013 38.7531C168.286 38.7531 169.259 38.2906 169.932 37.3639L172.956 39.286C171.664 41.1737 169.666 42.116 166.96 42.116C164.891 42.116 163.163 41.4878 161.774 40.233C160.386 38.9782 159.692 37.2655 159.692 35.0933C159.692 32.9571 160.369 31.2351 161.721 29.9271C163.073 28.6191 164.776 27.9644 166.827 27.9644C168.808 27.9644 170.408 28.6097 171.628 29.9005C172.85 31.1929 173.46 32.9603 173.46 35.2027ZM163.859 33.5197H169.455C169.455 32.7899 169.23 32.1852 168.778 31.7039C168.328 31.2226 167.685 30.9835 166.855 30.9835C166.041 30.9835 165.352 31.2335 164.786 31.732C164.221 32.2305 163.912 32.8259 163.859 33.5197Z" fill="white"/>
<path d="M178.182 32.5856L175.981 30.2088C177.555 28.7133 179.517 27.9663 181.869 27.9663C184.044 27.9663 185.599 28.5226 186.537 29.6353C187.475 30.7479 187.943 32.5325 187.943 34.989V41.6914H183.965V40.2756H183.886C183.567 40.81 183.063 41.2335 182.374 41.5445C181.684 41.8555 180.941 42.0117 180.146 42.0117C179.368 42.0117 178.639 41.8914 177.957 41.6508C177.276 41.4101 176.67 40.9616 176.139 40.3022C175.608 39.6443 175.343 38.8254 175.343 37.8456C175.343 34.8546 178.173 33.3591 183.831 33.3591V33.1451C183.831 32.5215 183.609 32.0465 183.168 31.7168C182.726 31.387 182.152 31.2229 181.444 31.2229C180.242 31.2245 179.154 31.6777 178.182 32.5856ZM183.965 36.3517V35.8969H183.407C180.702 35.8969 179.35 36.5017 179.35 37.7128C179.35 38.1753 179.536 38.5191 179.907 38.741C180.278 38.9645 180.72 39.0755 181.233 39.0755C182.099 39.0755 182.771 38.8317 183.249 38.341C183.726 37.8519 183.965 37.1877 183.965 36.3517Z" fill="white"/>
<path d="M204.389 41.6909H200.013V34.4275C200.013 32.5585 199.358 31.6241 198.049 31.6241C197.307 31.6241 196.731 31.9007 196.324 32.4523C195.918 33.0039 195.714 33.6806 195.714 34.4822V41.6924H191.338V28.394H195.556V30.2364H195.609C195.927 29.6129 196.444 29.0878 197.161 28.6612C197.877 28.2346 198.678 28.0205 199.561 28.0205C201.205 28.0205 202.42 28.5503 203.209 29.6098C203.996 30.6693 204.389 31.9553 204.389 33.468V41.6909Z" fill="white"/>
<path d="M29.2101 45.7087C35.9721 45.7087 41.4736 40.1706 41.4736 33.3635V33.3244C41.4736 32.8338 41.4425 32.3509 41.3866 31.8758C39.9895 33.562 38.0274 34.9668 35.4008 34.8465C34.7349 37.6672 32.2123 39.7705 29.2101 39.7705H24.4165V31.0335C22.1361 30.9351 20.1413 31.6039 18.5176 32.5087V45.7103H29.2101V45.7087Z" fill="white" fill-opacity="0.3"/>
<path d="M29.2106 26.917H24.417V39.7701H29.2106C32.7205 39.7701 35.5752 36.8963 35.5752 33.3631V33.324C35.5752 29.7908 32.7189 26.917 29.2106 26.917Z" fill="white"/>
<path d="M47.3512 12.4701H33.0138C32.6707 12.4701 32.3929 12.7498 32.3929 13.0951V16.7018C32.3929 17.0472 32.115 17.3269 31.7719 17.3269H23.5057C23.1627 17.3269 22.8848 17.0472 22.8848 16.7018V8.75712C22.8848 8.33676 22.5464 7.99609 22.1288 7.99609H18.9201C18.5025 7.99609 18.1641 8.33676 18.1641 8.75712V12.4701H14.1389C13.7958 12.4701 13.518 12.7498 13.518 13.0951V26.5921C13.518 26.9374 13.2401 27.2171 12.897 27.2171H9.22421C8.88114 27.2171 8.60327 27.4969 8.60327 27.8422V51.3732C8.60327 51.7185 8.88269 51.9998 9.22576 51.9998H47.3512C47.6943 51.9998 47.9737 51.7185 47.9737 51.3732V13.0967C47.9737 12.7498 47.6943 12.4701 47.3512 12.4701ZM41.4741 33.3632C41.4741 40.1703 35.9726 45.7084 29.2106 45.7084H18.5181V20.9789H29.2106C35.9726 20.9789 41.4741 26.5171 41.4741 33.3241V33.3632Z" fill="white"/>
<path d="M16.2733 4.75369H12.7945C12.4515 4.75369 12.1736 4.47397 12.1736 4.12862V0.625075C12.1736 0.279721 12.4515 0 12.7945 0H16.2749C16.6179 0 16.8958 0.279721 16.8958 0.625075V4.12862C16.8942 4.47397 16.6164 4.75369 16.2733 4.75369Z" fill="white"/>
<path d="M32.0295 12.7482H28.5492C28.2061 12.7482 27.9282 12.4685 27.9282 12.1231V8.62117C27.9282 8.27581 28.2061 7.99609 28.5492 7.99609H32.0295C32.3726 7.99609 32.6505 8.27581 32.6505 8.62117V12.1247C32.6505 12.4685 32.3726 12.7482 32.0295 12.7482Z" fill="white"/>
<path d="M14.2552 20.0413H10.1555V15.2876H14.2568C14.5999 15.2876 14.8777 15.5673 14.8777 15.9127V19.4162C14.8762 19.7616 14.5983 20.0413 14.2552 20.0413Z" fill="white"/>
<path d="M9.53439 42.5442H6.05404C5.71097 42.5442 5.43311 42.2645 5.43311 41.9192V38.4156C5.43311 38.0702 5.71097 37.7905 6.05404 37.7905H9.53439C9.87745 37.7905 10.1553 38.0702 10.1553 38.4156V41.9192C10.1553 42.2645 9.87745 42.5442 9.53439 42.5442Z" fill="white"/>
<path d="M10.1553 15.2878H6.05404C5.71097 15.2878 5.43311 15.0081 5.43311 14.6627V11.1607C5.43311 10.8154 5.71097 10.5356 6.05404 10.5356H9.53439C9.87745 10.5356 10.1553 10.8154 10.1553 11.1607V15.2878Z" fill="white"/>
<path d="M9.53447 24.7952H0.620936C0.277869 24.7952 0 24.5155 0 24.1701V20.6666C0 20.3212 0.277869 20.0415 0.620936 20.0415H10.1554V24.1701C10.1554 24.5155 9.87754 24.7952 9.53447 24.7952Z" fill="white"/>
</svg>
