<svg width="24" height="24" viewBox="0 0 24 24" fill="currentColor" xmlns="http://www.w3.org/2000/svg">
<path d="M11.4868 14.7292C12.4126 14.7259 14.4367 14.7184 14.4134 13.4309C14.3909 12.1143 12.4468 12.1935 11.4993 12.2326C11.3935 12.2368 11.2993 12.241 11.2227 12.2418L11.266 14.7309C11.3285 14.7292 11.4035 14.7292 11.4868 14.7292Z"/>
<path d="M11.3891 11.1021C12.1615 11.1013 13.8473 11.0996 13.8273 9.92879C13.8056 8.73133 12.1865 8.80216 11.3957 8.83716C11.3066 8.84133 11.2291 8.84466 11.1641 8.84549L11.2032 11.1029L11.3891 11.1021Z"/>
<path fill-rule="evenodd" clip-rule="evenodd" d="M9.57909 21.7008C14.9373 23.0366 20.3638 19.7759 21.6996 14.4194C23.0354 9.06202 19.7738 3.63551 14.4156 2.30056C9.06077 0.963929 3.63427 4.2255 2.29931 9.58367C0.963522 14.9402 4.22426 20.3667 9.57993 21.7016L9.57909 21.7008ZM13.1473 7.5179C14.6089 7.62123 15.7722 8.04955 15.9247 9.38617C16.0381 10.3645 15.6381 10.9603 14.9889 11.3053C16.0722 11.5453 16.7597 12.1744 16.6514 13.6144C16.5172 15.4018 15.1948 15.9043 13.2965 16.046L13.3281 17.9209L12.1982 17.9417L12.1657 16.0918C11.8732 16.0968 11.5732 16.1001 11.2624 16.0985L11.2957 17.9567L10.1657 17.9767L10.1324 16.0985L9.81325 16.101C9.65159 16.1018 9.48826 16.1026 9.32493 16.106L7.85331 16.131L8.05414 14.7777C8.05414 14.7777 8.89078 14.776 8.87578 14.7635C9.19577 14.7568 9.2766 14.526 9.2941 14.381L9.24327 11.4169L9.3241 11.4153H9.36243C9.3226 11.4107 9.28252 11.4088 9.24244 11.4094L9.20577 9.29284C9.15827 9.06452 9.00494 8.80119 8.54746 8.80952C8.55996 8.79286 7.72582 8.82369 7.72582 8.82369L7.70415 7.61706L9.2641 7.59039V7.59623C9.49826 7.59206 9.73909 7.58373 9.98325 7.57456L9.95158 5.71712L11.0815 5.69795L11.1132 7.5179C11.4149 7.50706 11.7182 7.4954 12.0157 7.4904L11.984 5.68212L13.1148 5.66212L13.1473 7.51956V7.5179Z"/>
</svg>
