<svg width="20" height="20" viewBox="0 0 20 20" fill="currentColor" xmlns="http://www.w3.org/2000/svg">
<g clip-path="url(#clip0)">
<path d="M10.8583 1.55819L1.7 0.166528C1.275 0.0998617 0.841667 0.216528 0.516667 0.491528C0.191667 0.774861 0 1.18319 0 1.60819V19.1665C0 19.6248 0.375 19.9998 0.833333 19.9998H3.54167V15.6248C3.54167 14.8165 4.19167 14.1665 5 14.1665H7.08333C7.89167 14.1665 8.54167 14.8165 8.54167 15.6248V19.9998H12.0833V2.99986C12.0833 2.28319 11.5667 1.67486 10.8583 1.55819ZM4.58333 12.2915H3.33333C2.98833 12.2915 2.70833 12.0115 2.70833 11.6665C2.70833 11.3215 2.98833 11.0415 3.33333 11.0415H4.58333C4.92833 11.0415 5.20833 11.3215 5.20833 11.6665C5.20833 12.0115 4.92833 12.2915 4.58333 12.2915ZM4.58333 9.79151H3.33333C2.98833 9.79151 2.70833 9.51151 2.70833 9.16652C2.70833 8.82152 2.98833 8.54152 3.33333 8.54152H4.58333C4.92833 8.54152 5.20833 8.82152 5.20833 9.16652C5.20833 9.51151 4.92833 9.79151 4.58333 9.79151ZM4.58333 7.29152H3.33333C2.98833 7.29152 2.70833 7.01152 2.70833 6.66652C2.70833 6.32152 2.98833 6.04152 3.33333 6.04152H4.58333C4.92833 6.04152 5.20833 6.32152 5.20833 6.66652C5.20833 7.01152 4.92833 7.29152 4.58333 7.29152ZM4.58333 4.79152H3.33333C2.98833 4.79152 2.70833 4.51152 2.70833 4.16652C2.70833 3.82152 2.98833 3.54152 3.33333 3.54152H4.58333C4.92833 3.54152 5.20833 3.82152 5.20833 4.16652C5.20833 4.51152 4.92833 4.79152 4.58333 4.79152ZM8.75 12.2915H7.5C7.155 12.2915 6.875 12.0115 6.875 11.6665C6.875 11.3215 7.155 11.0415 7.5 11.0415H8.75C9.095 11.0415 9.375 11.3215 9.375 11.6665C9.375 12.0115 9.095 12.2915 8.75 12.2915ZM8.75 9.79151H7.5C7.155 9.79151 6.875 9.51151 6.875 9.16652C6.875 8.82152 7.155 8.54152 7.5 8.54152H8.75C9.095 8.54152 9.375 8.82152 9.375 9.16652C9.375 9.51151 9.095 9.79151 8.75 9.79151ZM8.75 7.29152H7.5C7.155 7.29152 6.875 7.01152 6.875 6.66652C6.875 6.32152 7.155 6.04152 7.5 6.04152H8.75C9.095 6.04152 9.375 6.32152 9.375 6.66652C9.375 7.01152 9.095 7.29152 8.75 7.29152ZM8.75 4.79152H7.5C7.155 4.79152 6.875 4.51152 6.875 4.16652C6.875 3.82152 7.155 3.54152 7.5 3.54152H8.75C9.095 3.54152 9.375 3.82152 9.375 4.16652C9.375 4.51152 9.095 4.79152 8.75 4.79152Z"/>
<path d="M18.8506 9.03522L12.9173 7.79272V20.0002H18.5423C19.3465 20.0002 20.0006 19.3461 20.0006 18.5419V10.4602C20.0006 9.77189 19.5315 9.18606 18.8506 9.03522ZM16.8756 17.5002H15.6256C15.2806 17.5002 15.0006 17.2202 15.0006 16.8752C15.0006 16.5302 15.2806 16.2502 15.6256 16.2502H16.8756C17.2206 16.2502 17.5006 16.5302 17.5006 16.8752C17.5006 17.2202 17.2206 17.5002 16.8756 17.5002ZM16.8756 15.0002H15.6256C15.2806 15.0002 15.0006 14.7202 15.0006 14.3752C15.0006 14.0302 15.2806 13.7502 15.6256 13.7502H16.8756C17.2206 13.7502 17.5006 14.0302 17.5006 14.3752C17.5006 14.7202 17.2206 15.0002 16.8756 15.0002ZM16.8756 12.5002H15.6256C15.2806 12.5002 15.0006 12.2202 15.0006 11.8752C15.0006 11.5302 15.2806 11.2502 15.6256 11.2502H16.8756C17.2206 11.2502 17.5006 11.5302 17.5006 11.8752C17.5006 12.2202 17.2206 12.5002 16.8756 12.5002Z" />
</g>
<defs>
<clipPath id="clip0">
<rect width="20" height="20" fill="white"/>
</clipPath>
</defs>
</svg>
