<svg width="24" height="24" viewBox="0 0 24 24" fill="currentColor" xmlns="http://www.w3.org/2000/svg">
<path d="M12.3923 3.34949L3.62704 2.01755C3.22028 1.95374 2.80555 2.0654 2.49449 2.3286C2.18344 2.59977 2 2.99058 2 3.39734V20.2021C2 20.6408 2.35891 20.9997 2.79757 20.9997H5.38968V16.8125C5.38968 16.0388 6.01178 15.4167 6.78542 15.4167H8.77935C9.55299 15.4167 10.1751 16.0388 10.1751 16.8125V20.9997H13.5648V4.72928C13.5648 4.04337 13.0703 3.46115 12.3923 3.34949ZM6.38664 13.6222H5.19028C4.86009 13.6222 4.5921 13.3542 4.5921 13.024C4.5921 12.6938 4.86009 12.4258 5.19028 12.4258H6.38664C6.71683 12.4258 6.98482 12.6938 6.98482 13.024C6.98482 13.3542 6.71683 13.6222 6.38664 13.6222ZM6.38664 11.2295H5.19028C4.86009 11.2295 4.5921 10.9615 4.5921 10.6313C4.5921 10.3011 4.86009 10.0331 5.19028 10.0331H6.38664C6.71683 10.0331 6.98482 10.3011 6.98482 10.6313C6.98482 10.9615 6.71683 11.2295 6.38664 11.2295ZM6.38664 8.83677H5.19028C4.86009 8.83677 4.5921 8.56878 4.5921 8.23859C4.5921 7.9084 4.86009 7.64041 5.19028 7.64041H6.38664C6.71683 7.64041 6.98482 7.9084 6.98482 8.23859C6.98482 8.56878 6.71683 8.83677 6.38664 8.83677ZM6.38664 6.44406H5.19028C4.86009 6.44406 4.5921 6.17607 4.5921 5.84588C4.5921 5.51569 4.86009 5.2477 5.19028 5.2477H6.38664C6.71683 5.2477 6.98482 5.51569 6.98482 5.84588C6.98482 6.17607 6.71683 6.44406 6.38664 6.44406ZM10.3745 13.6222H9.17814C8.84794 13.6222 8.57996 13.3542 8.57996 13.024C8.57996 12.6938 8.84794 12.4258 9.17814 12.4258H10.3745C10.7047 12.4258 10.9727 12.6938 10.9727 13.024C10.9727 13.3542 10.7047 13.6222 10.3745 13.6222ZM10.3745 11.2295H9.17814C8.84794 11.2295 8.57996 10.9615 8.57996 10.6313C8.57996 10.3011 8.84794 10.0331 9.17814 10.0331H10.3745C10.7047 10.0331 10.9727 10.3011 10.9727 10.6313C10.9727 10.9615 10.7047 11.2295 10.3745 11.2295ZM10.3745 8.83677H9.17814C8.84794 8.83677 8.57996 8.56878 8.57996 8.23859C8.57996 7.9084 8.84794 7.64041 9.17814 7.64041H10.3745C10.7047 7.64041 10.9727 7.9084 10.9727 8.23859C10.9727 8.56878 10.7047 8.83677 10.3745 8.83677ZM10.3745 6.44406H9.17814C8.84794 6.44406 8.57996 6.17607 8.57996 5.84588C8.57996 5.51569 8.84794 5.2477 9.17814 5.2477H10.3745C10.7047 5.2477 10.9727 5.51569 10.9727 5.84588C10.9727 6.17607 10.7047 6.44406 10.3745 6.44406Z"/>
<path d="M20.042 10.5058L14.3633 9.31665V21.0003H19.7469C20.5165 21.0003 21.1426 20.3742 21.1426 19.6045V11.8697C21.1426 11.2109 20.6936 10.6502 20.042 10.5058ZM18.1517 18.6076H16.9554C16.6252 18.6076 16.3572 18.3396 16.3572 18.0094C16.3572 17.6792 16.6252 17.4112 16.9554 17.4112H18.1517C18.4819 17.4112 18.7499 17.6792 18.7499 18.0094C18.7499 18.3396 18.4819 18.6076 18.1517 18.6076ZM18.1517 16.2148H16.9554C16.6252 16.2148 16.3572 15.9469 16.3572 15.6167C16.3572 15.2865 16.6252 15.0185 16.9554 15.0185H18.1517C18.4819 15.0185 18.7499 15.2865 18.7499 15.6167C18.7499 15.9469 18.4819 16.2148 18.1517 16.2148ZM18.1517 13.8221H16.9554C16.6252 13.8221 16.3572 13.5541 16.3572 13.2239C16.3572 12.8938 16.6252 12.6258 16.9554 12.6258H18.1517C18.4819 12.6258 18.7499 12.8938 18.7499 13.2239C18.7499 13.5541 18.4819 13.8221 18.1517 13.8221Z"/>
</svg>
