<svg width="24" height="24" viewBox="0 0 24 24" fill="currentColor" xmlns="http://www.w3.org/2000/svg">
<path d="M5.76161 18.3413H0.921387C0.533074 18.3413 0.218262 18.6561 0.218262 19.0444V23.2969C0.218262 23.6852 0.533074 24.0001 0.921387 24.0001H6.46478V19.0444C6.46473 18.6561 6.14996 18.3413 5.76161 18.3413Z"/>
<path d="M12.7111 14.4038H8.57398C8.18566 14.4038 7.87085 14.7186 7.87085 15.1069V24.0001H13.4143V15.1069C13.4143 14.7186 13.0994 14.4038 12.7111 14.4038Z"/>
<path d="M22.3966 3.79734L23.8137 2.25938C24.003 2.05406 24.0527 1.75641 23.9407 1.50094C23.8287 1.245 23.576 1.08 23.2966 1.08H18.7639V0.703125C18.7639 0.315 18.4494 0 18.0608 0C17.6726 0 17.3576 0.315 17.3576 0.703125V8.90625H15.5234C15.1351 8.90625 14.8203 9.22106 14.8203 9.60938V24H20.4832C20.8718 24 21.1863 23.685 21.1863 23.2969V9.60938C21.1863 9.22125 20.8718 8.90625 20.4832 8.90625H18.7639V6.39047H23.2966C23.5812 6.39047 23.8376 6.21891 23.9463 5.95594C24.0551 5.69297 23.9946 5.39016 23.793 5.18953L22.3966 3.79734Z"/>
<path d="M11.9322 6.03667C12.1048 6.38458 12.5265 6.52671 12.8745 6.35421C13.2224 6.18166 13.3646 5.75978 13.192 5.41188C11.9173 2.84139 12.0463 3.10052 12.0277 3.0656C11.8956 2.81594 11.6237 2.66519 11.3342 2.69519C11.3322 2.69538 11.3302 2.6958 11.3282 2.69603C11.2707 2.7025 11.4243 2.67236 8.76111 3.2328C8.3811 3.31277 8.13791 3.68566 8.21783 4.06567C8.28753 4.39685 8.57971 4.62414 8.90516 4.62414C9.00303 4.62414 8.93999 4.63225 10.1766 4.372C9.25457 6.18185 8.05452 7.83119 6.59722 9.28858C4.81114 11.0747 2.73599 12.475 0.429409 13.4506C0.0717532 13.6019 -0.0955437 14.0144 0.0557219 14.372C0.207081 14.73 0.619816 14.8969 0.977191 14.7458C3.45139 13.6993 5.67678 12.1978 7.59153 10.2829C9.15214 8.72233 10.438 6.95585 11.4265 5.0171L11.9322 6.03667Z"/>
</svg>
