<svg width="24" height="24" viewBox="0 0 24 24" fill="currentColor" xmlns="http://www.w3.org/2000/svg">
<path d="M23.5781 23.5781C23.2969 23.8594 22.9609 24 22.5703 24C22.1797 24 21.8438 23.8594 21.5625 23.5781L11.0391 13.0547L8.57812 15.5156V15.5391C8.85938 15.8203 9 16.1602 9 16.5586C9 16.957 8.85938 17.2969 8.57812 17.5781C8.29688 17.8594 7.95703 18 7.55859 18C7.16016 18 6.82031 17.8594 6.53906 17.5781L0.421875 11.4609C0.140625 11.1797 0 10.8398 0 10.4414C0 10.043 0.140625 9.70312 0.421875 9.42188C0.703125 9.14062 1.04297 9 1.44141 9C1.83984 9 2.17969 9.14062 2.46094 9.42188L2.48438 9.44531L9.44531 2.48438L9.42188 2.46094C9.14062 2.17969 9 1.83984 9 1.44141C9 1.04297 9.14062 0.703125 9.42188 0.421875C9.70312 0.140625 10.043 0 10.4414 0C10.8398 0 11.1797 0.140625 11.4609 0.421875L17.5781 6.53906C17.8594 6.82031 18 7.16016 18 7.55859C18 7.95703 17.8594 8.29688 17.5781 8.57812C17.2969 8.85938 16.957 9 16.5586 9C16.1602 9 15.8203 8.85938 15.5391 8.57812L15.5156 8.55469L13.0547 11.0156L23.5781 21.5625C23.8594 21.8438 24 22.1797 24 22.5703C24 22.9609 23.8594 23.2969 23.5781 23.5781ZM7.89844 5.85938L5.88281 7.89844L10.125 12.1406L12.1406 10.125L7.89844 5.85938Z"/>
</svg>
