<svg width="24" height="24" viewBox="0 0 24 24" fill="currentColor" xmlns="http://www.w3.org/2000/svg">
<path d="M19.792 5.6906H18.4065C18.5893 5.40138 18.7099 5.07674 18.7443 4.7334C18.8541 3.63612 18.2762 2.65249 17.2924 2.21639C16.3881 1.81554 15.3719 1.97941 14.6401 2.64312L12.8907 4.22861C12.55 3.85597 12.0602 3.62177 11.5166 3.62177C10.9721 3.62177 10.4816 3.85671 10.1408 4.2305L8.38912 2.64293C7.65616 1.97922 6.64033 1.81599 5.73643 2.21662C4.75287 2.65275 4.17489 3.63672 4.28507 4.73395C4.31953 5.07704 4.44005 5.40153 4.62276 5.6906H3.24129C2.55572 5.6906 2 6.24636 2 6.93189V8.79384C2 9.13659 2.27788 9.41451 2.62066 9.41451H20.4127C20.7554 9.41451 21.0333 9.13663 21.0333 8.79384V6.93189C21.0333 6.24636 20.4776 5.6906 19.792 5.6906ZM9.65469 5.48372V5.6906H6.7349C5.96346 5.6906 5.35633 4.97142 5.549 4.16823C5.63387 3.81452 5.88918 3.513 6.2194 3.36036C6.67286 3.15077 7.17516 3.21806 7.55601 3.56278L9.65521 5.46543C9.6551 5.47157 9.65469 5.47759 9.65469 5.48372ZM17.5126 4.5686C17.4664 5.21369 16.8837 5.69067 16.237 5.69067H13.3786V5.4838C13.3786 5.47648 13.3781 5.46923 13.3781 5.4619C13.8536 5.03083 14.8852 4.09582 15.4447 3.58865C15.7627 3.30044 16.2077 3.1659 16.619 3.28858C17.2092 3.46464 17.5558 3.96656 17.5126 4.5686Z"/>
<path d="M3.24121 10.6558V19.7586C3.24121 20.4442 3.79693 20.9999 4.4825 20.9999H10.2752V10.6558H3.24121Z"/>
<path d="M12.7578 10.6558V20.9999H18.5505C19.2361 20.9999 19.7918 20.4442 19.7918 19.7586V10.6558H12.7578Z"/>
</svg>
