<svg width="75" height="210" viewBox="0 0 75 210" fill="none" xmlns="http://www.w3.org/2000/svg">
<rect x="17.5" y="0.5" width="57" height="209" rx="12.5" fill="white"/>
<rect width="56" height="44" transform="translate(18 17)" fill="white"/>
<path fill-rule="evenodd" clip-rule="evenodd" d="M37 32V46C37 47.1 37.89 48 39 48H53C54.1 48 55 47.1 55 46V32C55 30.9 54.1 30 53 30H39C37.89 30 37 30.9 37 32ZM49 36C49 37.66 47.66 39 46 39C44.34 39 43 37.66 43 36C43 34.34 44.34 33 46 33C47.66 33 49 34.34 49 36ZM46 40.9C44 40.9 40 42 40 44V45H52V44C52 42 48 40.9 46 40.9Z" fill="#424242"/>
<rect width="56" height="44" transform="translate(18 61)" fill="white"/>
<path d="M55.6309 92.6309C55.3848 92.877 55.0908 93 54.749 93C54.4072 93 54.1133 92.877 53.8672 92.6309L44.6592 83.4229L42.5059 85.5762V85.5967C42.752 85.8428 42.875 86.1401 42.875 86.4888C42.875 86.8374 42.752 87.1348 42.5059 87.3809C42.2598 87.627 41.9624 87.75 41.6138 87.75C41.2651 87.75 40.9678 87.627 40.7217 87.3809L35.3691 82.0283C35.123 81.7822 35 81.4849 35 81.1362C35 80.7876 35.123 80.4902 35.3691 80.2441C35.6152 79.998 35.9126 79.875 36.2612 79.875C36.6099 79.875 36.9072 79.998 37.1533 80.2441L37.1738 80.2646L43.2646 74.1738L43.2441 74.1533C42.998 73.9072 42.875 73.6099 42.875 73.2612C42.875 72.9126 42.998 72.6152 43.2441 72.3691C43.4902 72.123 43.7876 72 44.1362 72C44.4849 72 44.7822 72.123 45.0283 72.3691L50.3809 77.7217C50.627 77.9678 50.75 78.2651 50.75 78.6138C50.75 78.9624 50.627 79.2598 50.3809 79.5059C50.1348 79.752 49.8374 79.875 49.4888 79.875C49.1401 79.875 48.8428 79.752 48.5967 79.5059L48.5762 79.4854L46.4229 81.6387L55.6309 90.8672C55.877 91.1133 56 91.4072 56 91.749C56 92.0908 55.877 92.3848 55.6309 92.6309ZM41.9111 77.127L40.1475 78.9111L43.8594 82.623L45.623 80.8594L41.9111 77.127Z" fill="#424242"/>
<rect width="56" height="44" transform="translate(18 105)" fill="white"/>
<path fill-rule="evenodd" clip-rule="evenodd" d="M44.99 123C44.99 124.66 43.66 126 42 126C40.34 126 39 124.66 39 123C39 121.34 40.34 120 42 120C43.66 120 44.99 121.34 44.99 123ZM52.99 123C52.99 124.66 51.66 126 50 126C48.34 126 47 124.66 47 123C47 121.34 48.34 120 50 120C51.66 120 52.99 121.34 52.99 123ZM42 128C39.67 128 35 129.17 35 131.5V133C35 133.55 35.45 134 36 134H48C48.55 134 49 133.55 49 133V131.5C49 129.17 44.33 128 42 128ZM49.03 128.05C49.38 128.02 49.71 128 50 128C52.33 128 57 129.17 57 131.5V133C57 133.55 56.55 134 56 134H50.82C50.93 133.69 51 133.35 51 133V131.5C51 130.03 50.21 128.92 49.07 128.09C49.067 128.087 49.0639 128.083 49.0606 128.079C49.053 128.069 49.0439 128.057 49.03 128.05Z" fill="#424242"/>
<rect width="56" height="44" transform="translate(18 149)" fill="white"/>
<path d="M46.3923 162.349L37.627 161.018C37.2203 160.954 36.8055 161.065 36.4945 161.329C36.1834 161.6 36 161.991 36 162.397V179.202C36 179.641 36.3589 180 36.7976 180H39.3897V175.812C39.3897 175.039 40.0118 174.417 40.7854 174.417H42.7794C43.553 174.417 44.1751 175.039 44.1751 175.812V180H47.5648V163.729C47.5648 163.043 47.0703 162.461 46.3923 162.349V162.349ZM40.3866 172.622H39.1903C38.8601 172.622 38.5921 172.354 38.5921 172.024C38.5921 171.694 38.8601 171.426 39.1903 171.426H40.3866C40.7168 171.426 40.9848 171.694 40.9848 172.024C40.9848 172.354 40.7168 172.622 40.3866 172.622ZM40.3866 170.229H39.1903C38.8601 170.229 38.5921 169.961 38.5921 169.631C38.5921 169.301 38.8601 169.033 39.1903 169.033H40.3866C40.7168 169.033 40.9848 169.301 40.9848 169.631C40.9848 169.961 40.7168 170.229 40.3866 170.229ZM40.3866 167.837H39.1903C38.8601 167.837 38.5921 167.569 38.5921 167.239C38.5921 166.908 38.8601 166.64 39.1903 166.64H40.3866C40.7168 166.64 40.9848 166.908 40.9848 167.239C40.9848 167.569 40.7168 167.837 40.3866 167.837ZM40.3866 165.444H39.1903C38.8601 165.444 38.5921 165.176 38.5921 164.846C38.5921 164.516 38.8601 164.248 39.1903 164.248H40.3866C40.7168 164.248 40.9848 164.516 40.9848 164.846C40.9848 165.176 40.7168 165.444 40.3866 165.444ZM44.3745 172.622H43.1781C42.8479 172.622 42.58 172.354 42.58 172.024C42.58 171.694 42.8479 171.426 43.1781 171.426H44.3745C44.7047 171.426 44.9727 171.694 44.9727 172.024C44.9727 172.354 44.7047 172.622 44.3745 172.622ZM44.3745 170.229H43.1781C42.8479 170.229 42.58 169.961 42.58 169.631C42.58 169.301 42.8479 169.033 43.1781 169.033H44.3745C44.7047 169.033 44.9727 169.301 44.9727 169.631C44.9727 169.961 44.7047 170.229 44.3745 170.229ZM44.3745 167.837H43.1781C42.8479 167.837 42.58 167.569 42.58 167.239C42.58 166.908 42.8479 166.64 43.1781 166.64H44.3745C44.7047 166.64 44.9727 166.908 44.9727 167.239C44.9727 167.569 44.7047 167.837 44.3745 167.837ZM44.3745 165.444H43.1781C42.8479 165.444 42.58 165.176 42.58 164.846C42.58 164.516 42.8479 164.248 43.1781 164.248H44.3745C44.7047 164.248 44.9727 164.516 44.9727 164.846C44.9727 165.176 44.7047 165.444 44.3745 165.444Z" fill="#424242"/>
<path d="M54.042 169.506L48.3633 168.317V180H53.7469C54.5165 180 55.1426 179.374 55.1426 178.605V170.87C55.1426 170.211 54.6936 169.65 54.042 169.506V169.506ZM52.1517 177.608H50.9554C50.6252 177.608 50.3572 177.34 50.3572 177.009C50.3572 176.679 50.6252 176.411 50.9554 176.411H52.1517C52.4819 176.411 52.7499 176.679 52.7499 177.009C52.7499 177.34 52.4819 177.608 52.1517 177.608ZM52.1517 175.215H50.9554C50.6252 175.215 50.3572 174.947 50.3572 174.617C50.3572 174.286 50.6252 174.018 50.9554 174.018H52.1517C52.4819 174.018 52.7499 174.286 52.7499 174.617C52.7499 174.947 52.4819 175.215 52.1517 175.215ZM52.1517 172.822H50.9554C50.6252 172.822 50.3572 172.554 50.3572 172.224C50.3572 171.894 50.6252 171.626 50.9554 171.626H52.1517C52.4819 171.626 52.7499 171.894 52.7499 172.224C52.7499 172.554 52.4819 172.822 52.1517 172.822Z" fill="#424242"/>
<circle cx="18" cy="61" r="17" fill="#FDFDFD" stroke="#BBBBBB" stroke-width="2"/>
<path d="M14.9995 61.7034L19.5895 66.2934C19.9795 66.6834 20.6095 66.6834 20.9995 66.2934C21.3895 65.9034 21.3895 65.2734 20.9995 64.8834L17.1195 60.9934L20.9995 57.1134C21.3895 56.7234 21.3895 56.0934 20.9995 55.7034C20.6095 55.3134 19.9795 55.3134 19.5895 55.7034L14.9995 60.2934C14.6095 60.6734 14.6095 61.3134 14.9995 61.7034Z" fill="#424242"/>
<rect x="17.5" y="0.5" width="57" height="209" rx="12.5" stroke="#BBBBBB"/>
</svg>
