<svg width="24" height="20" viewBox="0 0 24 20" fill="currentColor" xmlns="http://www.w3.org/2000/svg">
<path d="M12.0001 4.30591L3.44055 11.3623C3.44055 11.3723 3.43805 11.3869 3.43305 11.4069C3.42814 11.4267 3.42554 11.4411 3.42554 11.4513V18.5967C3.42554 18.8547 3.51986 19.0782 3.70845 19.2665C3.89699 19.4549 4.12025 19.5497 4.3783 19.5497H10.0944V13.8332H13.9057V19.5499H19.6218C19.8798 19.5499 20.1034 19.4553 20.2917 19.2665C20.4802 19.0784 20.5749 18.8547 20.5749 18.5967V11.4513C20.5749 11.4117 20.5695 11.3818 20.5599 11.3623L12.0001 4.30591Z"/>
<path d="M23.8344 9.7543L20.5745 7.04499V0.971336C20.5745 0.832487 20.5299 0.7183 20.4403 0.628932C20.3515 0.539668 20.2373 0.495036 20.0981 0.495036H17.24C17.101 0.495036 16.9868 0.539668 16.8974 0.628932C16.8082 0.7183 16.7636 0.832539 16.7636 0.971336V3.87414L13.1314 0.837232C12.8142 0.57919 12.437 0.450195 12.0003 0.450195C11.5636 0.450195 11.1865 0.57919 10.869 0.837232L0.165357 9.7543C0.066134 9.83355 0.0117517 9.94023 0.00163652 10.0742C-0.00842655 10.2081 0.0262467 10.3251 0.105761 10.4242L1.0287 11.5259C1.10821 11.6151 1.21228 11.6697 1.34133 11.6897C1.46047 11.6997 1.57961 11.6649 1.69875 11.5855L12 2.99583L22.3013 11.5855C22.3809 11.6547 22.4849 11.6893 22.614 11.6893H22.6587C22.7876 11.6697 22.8914 11.6147 22.9713 11.5257L23.8944 10.4242C23.9737 10.3248 24.0085 10.2081 23.9982 10.074C23.988 9.94038 23.9334 9.8337 23.8344 9.7543Z"/>
</svg>
