<svg width="26" height="27" viewBox="0 0 26 27" fill="none" xmlns="http://www.w3.org/2000/svg">
<g clip-path="url(#clip0)">
<path d="M12.2108 23.6732L5.06876 16.5312C4.63301 16.0954 4.63301 15.3887 5.06876 14.953C5.5046 14.5171 6.21112 14.5171 6.64696 14.953L11.8839 20.1899V1.11594C11.8839 0.499673 12.3836 0 12.9999 0C13.616 0 14.1158 0.499673 14.1158 1.11594L14.1158 20.1899L19.3528 14.9531C19.7886 14.5173 20.4951 14.5173 20.931 14.9531C21.1487 15.171 21.2578 15.4566 21.2578 15.7422C21.2578 16.0278 21.1487 16.3134 20.931 16.5313L13.789 23.6732C13.3531 24.109 12.6466 24.109 12.2108 23.6732Z" fill="#1C3FAA"/>
</g>
<line x1="1" y1="26" x2="25" y2="26" stroke="#1C3FAA" stroke-width="2" stroke-linecap="round"/>
<defs>
<clipPath id="clip0">
<rect width="24" height="24" fill="white" transform="matrix(0 1 1 0 1 0)"/>
</clipPath>
</defs>
</svg>
