<svg width="204" height="204" viewBox="0 0 204 204" fill="none" xmlns="http://www.w3.org/2000/svg">
<circle cx="102" cy="102" r="101.5" fill="#FEFEFE" stroke="#CECECE"/>
<path opacity="0.2" d="M54.2383 111.822H67.9238V117H47.793V85.7188H54.2383V111.822ZM95.9609 102.068C95.9609 105.148 95.4167 107.848 94.3281 110.168C93.2396 112.488 91.6784 114.279 89.6445 115.539C87.625 116.799 85.3047 117.43 82.6836 117.43C80.0911 117.43 77.778 116.807 75.7441 115.561C73.7103 114.314 72.1348 112.538 71.0176 110.232C69.9004 107.912 69.3346 105.248 69.3203 102.24V100.693C69.3203 97.6139 69.8717 94.9069 70.9746 92.5723C72.0918 90.2233 73.6602 88.4258 75.6797 87.1797C77.7135 85.9193 80.0339 85.2891 82.6406 85.2891C85.2474 85.2891 87.5605 85.9193 89.5801 87.1797C91.6139 88.4258 93.1823 90.2233 94.2852 92.5723C95.4023 94.9069 95.9609 97.6068 95.9609 100.672V102.068ZM89.4297 100.65C89.4297 97.3704 88.8424 94.8783 87.668 93.1738C86.4935 91.4694 84.8177 90.6172 82.6406 90.6172C80.4779 90.6172 78.8092 91.4622 77.6348 93.1523C76.4603 94.8281 75.8659 97.2917 75.8516 100.543V102.068C75.8516 105.262 76.4388 107.74 77.6133 109.502C78.7878 111.264 80.4779 112.145 82.6836 112.145C84.8464 112.145 86.5078 111.299 87.668 109.609C88.8281 107.905 89.4154 105.427 89.4297 102.176V100.65ZM125.395 113.047C124.234 114.436 122.594 115.518 120.475 116.291C118.355 117.05 116.006 117.43 113.428 117.43C110.721 117.43 108.343 116.842 106.295 115.668C104.261 114.479 102.686 112.76 101.568 110.512C100.465 108.263 99.8997 105.62 99.8711 102.584V100.457C99.8711 97.3346 100.394 94.6348 101.439 92.3574C102.499 90.0658 104.018 88.3184 105.994 87.1152C107.985 85.8978 110.312 85.2891 112.977 85.2891C116.686 85.2891 119.587 86.1771 121.678 87.9531C123.769 89.7148 125.008 92.2858 125.395 95.666H119.121C118.835 93.8757 118.197 92.5651 117.209 91.7344C116.235 90.9036 114.889 90.4883 113.17 90.4883C110.979 90.4883 109.31 91.3118 108.164 92.959C107.018 94.6061 106.438 97.0553 106.424 100.307V102.305C106.424 105.585 107.047 108.062 108.293 109.738C109.539 111.414 111.365 112.252 113.771 112.252C116.192 112.252 117.918 111.736 118.949 110.705V105.312H113.084V100.564H125.395V113.047ZM156.332 102.068C156.332 105.148 155.788 107.848 154.699 110.168C153.611 112.488 152.049 114.279 150.016 115.539C147.996 116.799 145.676 117.43 143.055 117.43C140.462 117.43 138.149 116.807 136.115 115.561C134.081 114.314 132.506 112.538 131.389 110.232C130.271 107.912 129.706 105.248 129.691 102.24V100.693C129.691 97.6139 130.243 94.9069 131.346 92.5723C132.463 90.2233 134.031 88.4258 136.051 87.1797C138.085 85.9193 140.405 85.2891 143.012 85.2891C145.618 85.2891 147.932 85.9193 149.951 87.1797C151.985 88.4258 153.553 90.2233 154.656 92.5723C155.773 94.9069 156.332 97.6068 156.332 100.672V102.068ZM149.801 100.65C149.801 97.3704 149.214 94.8783 148.039 93.1738C146.865 91.4694 145.189 90.6172 143.012 90.6172C140.849 90.6172 139.18 91.4622 138.006 93.1523C136.831 94.8281 136.237 97.2917 136.223 100.543V102.068C136.223 105.262 136.81 107.74 137.984 109.502C139.159 111.264 140.849 112.145 143.055 112.145C145.217 112.145 146.879 111.299 148.039 109.609C149.199 107.905 149.786 105.427 149.801 102.176V100.65Z" fill="#2F3849"/>
</svg>
