<svg width="204" height="204" viewBox="0 0 204 204" fill="none" xmlns="http://www.w3.org/2000/svg">
<circle cx="102" cy="102" r="101.5" fill="#FEFEFE" stroke="#CECECE"/>
<g opacity="0.2">
<path d="M80.4869 92.8782C81.6043 99.9842 87.2167 109.028 96.4352 112.208C100.219 113.5 104.358 113.525 108.142 112.184C117.208 108.978 122.999 99.9593 124.141 92.8782C125.36 92.7788 126.96 91.1141 128.687 85.1262C131.049 76.9519 128.535 75.7344 126.402 75.9332C126.808 74.8151 127.113 73.6722 127.316 72.579C130.922 51.3853 120.256 50.6648 120.256 50.6648C120.256 50.6648 118.478 47.3354 113.831 44.8259C110.707 43.0122 106.365 41.6208 100.651 42.0929C98.7969 42.1674 97.0446 42.5401 95.394 43.0619C93.2861 43.7575 91.3561 44.7762 89.6038 45.9688C87.4706 47.2857 85.439 48.9255 83.6613 50.789C80.8425 53.6214 78.3283 57.2738 77.2363 61.8206C76.3221 65.2245 76.5253 68.7775 77.2871 72.6038C77.4903 73.7219 77.795 74.84 78.2013 75.958C76.0681 75.7593 73.554 76.9767 75.9158 85.1511C77.668 91.1141 79.268 92.7788 80.4869 92.8782Z" fill="#2F3849"/>
<path d="M144.206 120.681C131.229 117.451 120.69 110.196 120.69 110.196L112.461 135.663L110.912 140.458L110.887 140.384L109.541 144.458L105.198 132.408C115.864 117.848 103.04 117.997 102.329 118.022C101.618 117.997 88.7931 117.848 99.4591 132.408L95.1165 144.458L93.7706 140.384L93.7452 140.458L92.1961 135.663L83.9426 110.196C83.9426 110.196 73.4035 117.451 60.4265 120.681C50.7509 123.091 50.2938 134.023 50.6748 139.415C50.6748 139.415 51.2334 152.744 51.7921 155.974C51.7921 155.974 70.6862 161.975 102.329 162C133.971 162 152.865 155.974 152.865 155.974C153.424 152.744 153.983 139.415 153.983 139.415C154.338 134.023 153.881 123.091 144.206 120.681Z" fill="#2F3849"/>
</g>
</svg>
