<svg width="20" height="18" viewBox="0 0 20 18" fill="none" xmlns="http://www.w3.org/2000/svg">
<path fill-rule="evenodd" clip-rule="evenodd" d="M18 4H14C14 1.79 12.21 0 10 0C7.79 0 6 1.79 6 4H2C0.9 4 0 4.9 0 6V9C0 10.11 0.89 11 2 11H8V10C8 9.45 8.45 9 9 9H11C11.55 9 12 9.45 12 10V11H18C19.1 11 20 10.1 20 9V6C20 4.9 19.1 4 18 4ZM9 13C8.45 13 8 12.55 8 12H1.01V16C1.01 17.1 1.91 18 3.01 18H17C18.1 18 19 17.1 19 16V12H12C12 12.55 11.55 13 11 13H9ZM10 2C8.9 2 8 2.9 8 4H12C12 2.9 11.1 2 10 2Z" fill="#9D9D9D"/>
</svg>
