<svg width="20" height="24" viewBox="0 0 20 24" fill="currentColor" xmlns="http://www.w3.org/2000/svg">
<path d="M11.2572 5.22226C13.0829 3.68856 14.3028 0.233355 13.5521 0.082233C12.5545 -0.118642 10.3883 0.762171 9.34131 0.917359C7.85629 1.09666 6.23889 -0.692975 5.33103 0.304568C4.59287 1.11564 5.86024 4.06523 7.84307 5.35023C1.92739 8.2577 -6.38751 22.8534 8.11827 23.9125C28.1895 25.3779 18.1391 8.05552 11.2572 5.22226ZM12.9809 16.7331C12.9192 17.3022 12.6176 17.8168 12.1668 18.1661C11.6909 18.535 11.0939 18.7065 10.5008 18.7546V19.3833C10.5008 19.5516 10.4273 19.7143 10.3014 19.8256C10.1283 19.9788 9.87391 20.0166 9.66383 19.9198C9.4564 19.8243 9.32013 19.6116 9.32013 19.3833V18.6962C9.21842 18.6768 9.11745 18.6539 9.01766 18.6265C8.46332 18.4742 7.94913 18.1773 7.57353 17.738C7.38643 17.5191 7.2339 17.2707 7.1284 17.0025C7.10084 16.9324 7.07628 16.861 7.05476 16.7888C7.03528 16.7235 7.01517 16.6571 7.00823 16.589C6.99654 16.4747 7.01918 16.3582 7.07244 16.2564C7.18188 16.047 7.41252 15.9206 7.64801 15.9416C7.87978 15.9622 8.08291 16.123 8.15588 16.3439C8.17835 16.412 8.1936 16.4817 8.21885 16.549C8.24386 16.6159 8.27408 16.6809 8.3096 16.7428C8.37974 16.8647 8.46761 16.9771 8.56881 17.0746C8.77742 17.2756 9.04313 17.4062 9.32013 17.4839V15.1481C8.7785 15.0078 8.21941 14.8267 7.77214 14.479C7.55478 14.3099 7.37033 14.0998 7.24954 13.8511C7.12208 13.5887 7.06928 13.2964 7.06713 13.006C7.06493 12.7111 7.12095 12.4189 7.24395 12.1502C7.35915 11.8987 7.52501 11.6729 7.72837 11.4856C8.16322 11.0854 8.74083 10.8622 9.32019 10.7802V10.7288V10.1275C9.32019 9.95935 9.39366 9.79659 9.51959 9.68523C9.69274 9.53213 9.94698 9.49429 10.1571 9.59108C10.3645 9.68658 10.5008 9.89926 10.5008 10.1275V10.7288V10.7766C10.578 10.7863 10.655 10.798 10.7316 10.8119C11.3005 10.9148 11.8569 11.1497 12.2729 11.5599C12.47 11.7542 12.6314 11.9857 12.7448 12.2381C12.7765 12.3085 12.8042 12.3806 12.8282 12.4541C12.8506 12.5226 12.8731 12.5931 12.8838 12.6646C12.9008 12.7787 12.8834 12.8966 12.8346 13.0011C12.7345 13.215 12.5101 13.3512 12.274 13.3411C12.042 13.331 11.8318 13.1799 11.7487 12.963C11.724 12.8986 11.7116 12.8303 11.6864 12.766C11.6609 12.7008 11.6279 12.6387 11.5899 12.58C11.516 12.466 11.4203 12.3682 11.311 12.2876C11.0744 12.1128 10.7874 12.0218 10.5006 11.9709V14.2062C10.8415 14.2879 11.1826 14.3769 11.5091 14.5056C12.0026 14.7002 12.4703 14.9986 12.7396 15.4692C12.6979 15.3959 12.6572 15.3244 12.7411 15.4716C12.8234 15.6162 12.7841 15.5473 12.7427 15.4748C12.9571 15.8525 13.0275 16.3041 12.9809 16.7331Z"/>
</svg>
