<svg width="24" height="24" viewBox="0 0 24 24" fill="currentColor" xmlns="http://www.w3.org/2000/svg">
<path d="M23.2258 20.1726L19.5222 6.1987C19.4405 5.89041 19.1616 5.67572 18.8426 5.67572H14.798C16.5837 3.39028 14.9621 0 12.0273 0C9.0921 0 7.47112 3.39061 9.25654 5.67567H4.9289C4.60574 5.67567 4.32426 5.89589 4.24644 6.20953L0.771553 20.2197C0.731522 20.3809 0.749944 20.5511 0.823444 20.7001L2.25843 23.6081C2.37688 23.848 2.62133 24 2.88899 24H21.1702C21.4433 24 21.6916 23.8419 21.8072 23.5946L23.1832 20.6504C23.253 20.501 23.2681 20.3319 23.2258 20.1726ZM12.0273 1.40625C13.1904 1.40625 14.1366 2.35252 14.1366 3.51562C14.1366 4.67873 13.1904 5.625 12.0273 5.625C10.8642 5.625 9.9179 4.67873 9.9179 3.51562C9.9179 2.35252 10.8642 1.40625 12.0273 1.40625ZM12.6913 18.6608V19.0124C12.6913 19.4007 12.3765 19.7155 11.9882 19.7155C11.5999 19.7155 11.2851 19.4007 11.2851 19.0124V18.713C10.7556 18.624 10.2546 18.4282 9.87257 18.1783C9.54758 17.9657 9.45651 17.5299 9.66908 17.205C9.88162 16.88 10.3174 16.7889 10.6424 17.0015C11.1766 17.3509 12.0136 17.4645 12.4702 17.2497C12.8053 17.092 13.0559 16.759 13.0936 16.421C13.172 15.7178 12.3736 15.4022 11.7621 15.1607C11.1231 14.9083 10.3987 14.6222 9.98305 13.8718C9.3808 12.7844 9.95371 11.2988 11.2851 10.89V10.5938C11.2851 10.2054 11.5999 9.89062 11.9882 9.89062C12.3765 9.89062 12.6913 10.2054 12.6913 10.5938V10.8403C13.1131 10.9324 13.5074 11.1198 13.8092 11.3981C14.0946 11.6614 14.1126 12.1062 13.8493 12.3917C13.5861 12.6771 13.1413 12.6952 12.8557 12.4318C12.576 12.1739 11.8621 12.0783 11.4871 12.3304C11.1908 12.5296 11.0653 12.9235 11.2132 13.1904C11.5345 13.7705 12.6801 13.8277 13.5693 14.5207C15.2397 15.8225 14.4959 18.1567 12.6913 18.6608Z"/>
</svg>
