<svg width="7" height="15" viewBox="0 0 7 15" fill="none" xmlns="http://www.w3.org/2000/svg">
    <path d="M6.06682 11.7456C5.82275 11.5016 5.42713 11.5016 5.18306 11.7456L4.06243 12.8663V0.625C4.06243 0.28 3.78243 0 3.43743 0C3.09243 0 2.81243 0.28 2.81243 0.625V12.8663L1.6918 11.7456C1.44774 11.5016 1.0518 11.5016 0.808047 11.7456C0.563984 11.9897 0.563984 12.3853 0.808047 12.6294L2.99555 14.8169C3.11774 14.9391 3.27743 15 3.43743 15C3.59743 15 3.75712 14.9391 3.87931 14.8169L6.06682 12.6294C6.31088 12.3853 6.31088 11.9897 6.06682 11.7456Z" fill="white"/>
</svg>
