<svg width="6" height="15" viewBox="0 0 6 15" fill="none" xmlns="http://www.w3.org/2000/svg">
    <path d="M5.4418 2.37061L3.2543 0.183108C3.01055 -0.0609546 2.6143 -0.0609546 2.37055 0.183108L0.183047 2.37061C-0.0610156 2.61467 -0.0610156 3.0103 0.183047 3.25436C0.426797 3.49842 0.823047 3.49842 1.0668 3.25436L2.18742 2.13373V14.375C2.18742 14.72 2.46742 15 2.81242 15C3.15742 15 3.43742 14.72 3.43742 14.375V2.13373L4.55805 3.25436C4.67992 3.37655 4.83992 3.43748 4.99992 3.43748C5.15992 3.43748 5.31992 3.37655 5.4418 3.25436C5.68586 3.0103 5.68586 2.61467 5.4418 2.37061Z" fill="white"/>
</svg>
