<svg width="170" height="170" viewBox="0 0 170 170" fill="none" xmlns="http://www.w3.org/2000/svg">
<circle cx="85" cy="85" r="84.5" fill="#F3F3F3" stroke="#CECECE"/>
<g opacity="0.2" clip-path="url(#clip0)">
<path d="M66.713 77.2466C67.6628 83.2867 72.4333 90.974 80.269 93.6773C83.4853 94.7755 87.0038 94.7966 90.2201 93.6562C97.9263 90.9318 102.848 83.2655 103.819 77.2466C104.855 77.1621 106.215 75.7471 107.683 70.6574C109.691 63.7092 107.554 62.6744 105.74 62.8433C106.086 61.893 106.345 60.9215 106.518 59.9922C109.583 41.9776 100.517 41.3652 100.517 41.3652C100.517 41.3652 99.0056 38.5352 95.0554 36.4022C92.4003 34.8605 88.7091 33.6778 83.8523 34.0791C82.2765 34.1424 80.7871 34.4592 79.384 34.9027C77.5923 35.494 75.9518 36.3599 74.4624 37.3736C72.6492 38.493 70.9223 39.8868 69.4113 41.4708C67.0152 43.8783 64.8782 46.9829 63.95 50.8477C63.1729 53.741 63.3456 56.761 63.9932 60.0134C64.1659 60.9637 64.4249 61.9141 64.7703 62.8645C62.957 62.6955 60.82 63.7303 62.8275 70.6785C64.317 75.7471 65.6769 77.1621 66.713 77.2466Z" fill="#424242"/>
<path d="M120.875 100.879C109.844 98.1333 100.886 91.9665 100.886 91.9665L93.8922 113.614L92.5755 117.69L92.5539 117.626L91.4098 121.09L87.7186 110.847C96.7848 98.4712 85.8838 98.5979 85.2794 98.619C84.675 98.5979 73.7741 98.4712 82.8402 110.847L79.149 121.09L78.0049 117.626L77.9833 117.69L76.6666 113.614L69.6511 91.9665C69.6511 91.9665 60.693 98.1333 49.6625 100.879C41.4382 102.927 41.0497 112.22 41.3735 116.803C41.3735 116.803 41.8484 128.133 42.3233 130.878C42.3233 130.878 58.3833 135.979 85.2794 136C112.176 136 128.236 130.878 128.236 130.878C128.71 128.133 129.185 116.803 129.185 116.803C129.488 112.22 129.099 102.927 120.875 100.879Z" fill="#424242"/>
</g>
<defs>
<clipPath id="clip0">
<rect width="104.255" height="102" fill="white" transform="translate(33.1504 34.0001)"/>
</clipPath>
</defs>
</svg>
