<svg width="25" height="20" viewBox="0 0 25 20" fill="currentColor" xmlns="http://www.w3.org/2000/svg">
<path d="M13.2185 9.20774C13.3768 10.2144 14.1719 11.4957 15.4778 11.9462C16.0139 12.1292 16.6003 12.1327 17.1363 11.9427C18.4207 11.4886 19.241 10.2109 19.4029 9.20774C19.5756 9.19367 19.8022 8.95784 20.0468 8.10955C20.3814 6.95152 20.0253 6.77904 19.7231 6.8072C19.7806 6.64881 19.8238 6.48689 19.8526 6.33202C20.3634 3.32958 18.8524 3.22751 18.8524 3.22751C18.8524 3.22751 18.6006 2.75585 17.9422 2.40034C17.4997 2.14339 16.8845 1.94628 16.075 2.01316C15.8124 2.02372 15.5642 2.07651 15.3303 2.15043C15.0317 2.24899 14.7583 2.3933 14.51 2.56225C14.2078 2.74881 13.92 2.98112 13.6682 3.24511C13.2689 3.64637 12.9127 4.16379 12.758 4.80792C12.6285 5.29014 12.6572 5.79348 12.7652 6.33554C12.794 6.49393 12.8371 6.65233 12.8947 6.81072C12.5925 6.78256 12.2363 6.95504 12.5709 8.11307C12.8191 8.95783 13.0458 9.19367 13.2185 9.20774Z"/>
<path d="M22.2448 13.1465C20.4064 12.6889 18.9134 11.6611 18.9134 11.6611L17.7477 15.269L17.5283 15.9483L17.5247 15.9378L17.334 16.515L16.7188 14.8079C18.2298 12.7452 16.413 12.7664 16.3123 12.7699C16.2115 12.7664 14.3947 12.7452 15.9057 14.8079L15.2905 16.515L15.0999 15.9378L15.0963 15.9483L14.8768 15.269L13.7076 11.6611C13.7076 11.6611 12.2145 12.6889 10.3761 13.1465C9.00541 13.4879 8.94066 15.0367 8.99462 15.8005C8.99462 15.8005 9.07377 17.6888 9.15292 18.1464C9.15292 18.1464 11.8296 18.9965 16.3123 19C20.795 19 23.4716 18.1464 23.4716 18.1464C23.5508 17.6888 23.6299 15.8005 23.6299 15.8005C23.6803 15.0367 23.6155 13.4879 22.2448 13.1465Z"/>
<g clip-path="url(#clip0)">
<path d="M14.8523 5.31622C14.9805 5.40536 15.0867 5.53028 15.1598 5.68895C15.3411 6.08209 15.297 6.62961 15.0957 7.32626L14.8523 5.31622ZM14.8523 5.31622C14.8617 5.27313 14.8704 5.23031 14.8783 5.18785L14.8784 5.18786L14.8797 5.18037C15.192 3.34447 14.909 2.26512 14.4175 1.63742C14.1735 1.32591 13.8974 1.15231 13.6731 1.05751C13.6168 1.03374 13.564 1.015 13.516 1.00023C13.4697 0.936972 13.4106 0.862456 13.3378 0.78101C13.1356 0.555057 12.8257 0.274589 12.3836 0.0347163C11.7829 -0.31246 10.9635 -0.568446 9.91177 -0.483671C9.55244 -0.468073 9.21932 -0.395733 8.91574 -0.299774L8.91572 -0.299812L8.90972 -0.29783C8.51057 -0.16609 8.15041 0.0243497 7.82931 0.241865C7.44244 0.481808 7.07518 0.77867 6.75287 1.11588C6.24053 1.63167 5.76493 2.31478 5.55554 3.18024C5.37762 3.84813 5.42402 4.52236 5.55745 5.19424C5.56516 5.23642 5.57362 5.27853 5.5828 5.32057C5.45471 5.4097 5.34863 5.53454 5.27553 5.69309C5.09426 6.08627 5.13841 6.63387 5.33972 7.33063L5.33971 7.33063L5.34035 7.33281C5.49204 7.849 5.64841 8.22106 5.81646 8.47682C5.90321 8.60884 6.01023 8.73486 6.14085 8.82784C6.43834 10.1067 7.44855 11.6123 9.0769 12.1741L9.0784 12.1746C9.8116 12.4249 10.6172 12.4312 11.3578 12.1687C12.9555 11.6039 13.9919 10.1068 14.2972 8.82886C14.4288 8.73545 14.5364 8.60837 14.6235 8.47501C14.791 8.21826 14.9462 7.8448 15.0957 7.32649L14.8523 5.31622Z" stroke="white"/>
<path d="M17.3222 12.6283L17.3221 12.6283C16.2916 12.3718 15.3499 11.9529 14.6616 11.5944C14.3188 11.4158 14.0419 11.2538 13.8518 11.1371C13.7568 11.0789 13.6837 11.032 13.6351 11.0003C13.6108 10.9844 13.5926 10.9724 13.5809 10.9645L13.5683 10.956L13.5656 10.9542L13.5656 10.9541L13.5654 10.954L13.5653 10.954L13.5653 10.9539L13.0126 10.5735L12.8063 11.2122L11.5484 15.1056L11.4034 15.5445L11.2589 15.1437C11.6255 14.6049 11.8303 14.1427 11.8872 13.7388C11.9566 13.2462 11.8017 12.8537 11.5081 12.5873C11.2443 12.3481 10.9147 12.2524 10.6876 12.2104C10.4725 12.1706 10.292 12.1688 10.2219 12.1702C10.1518 12.1688 9.97136 12.1706 9.75627 12.2104C9.52914 12.2524 9.19952 12.3481 8.93576 12.5873C8.64216 12.8537 8.48722 13.2462 8.55663 13.7388C8.61354 14.1427 8.81836 14.6049 9.18489 15.1437L9.04044 15.5445L8.87691 15.0495L7.63319 11.2118L7.42643 10.5738L6.8743 10.9539L6.87425 10.954L6.87416 10.954L6.87403 10.9541L6.87394 10.9542L6.87133 10.956L6.85868 10.9645C6.84698 10.9724 6.82881 10.9844 6.80451 11.0003C6.75589 11.032 6.68279 11.0789 6.58781 11.1371C6.39773 11.2538 6.1208 11.4158 5.77794 11.5944C5.08966 11.9529 4.148 12.3718 3.11744 12.6283L3.11735 12.6283C2.10407 12.8807 1.57603 13.5939 1.32423 14.3256C1.08063 15.0335 1.08056 15.7881 1.11365 16.2638L1.11444 16.2823L1.11758 16.3544C1.12032 16.4166 1.12434 16.5059 1.12946 16.6148C1.13969 16.8325 1.15432 17.1286 1.17189 17.4419C1.20606 18.0512 1.25376 18.7763 1.30645 19.0809L1.35824 19.3803L1.64779 19.4723L1.79914 18.9957C1.64779 19.4723 1.64792 19.4723 1.64805 19.4724L1.64838 19.4725L1.64927 19.4727L1.6519 19.4736L1.66061 19.4763L1.69175 19.4858C1.71857 19.4938 1.7575 19.5053 1.80826 19.5197C1.90979 19.5485 2.05871 19.589 2.25301 19.6373C2.64159 19.7338 3.21178 19.8615 3.94753 19.989C5.41895 20.2438 7.55318 20.4979 10.2215 20.5H10.2219C12.8905 20.5 15.0249 20.2459 16.4965 19.9905C17.2323 19.8628 17.8026 19.7347 18.1912 19.6378C18.3855 19.5893 18.5345 19.5487 18.636 19.5197C18.6868 19.5053 18.7258 19.4938 18.7526 19.4856L18.7838 19.4761L18.7925 19.4734L18.7951 19.4726L18.796 19.4723L18.7963 19.4722C18.7965 19.4721 18.7966 19.4721 18.6447 18.9957L18.7966 19.4721L19.0857 19.3799L19.1374 19.0809C19.1901 18.7763 19.2378 18.0512 19.2719 17.4419C19.2895 17.1286 19.3041 16.8325 19.3144 16.6148C19.3195 16.5059 19.3235 16.4166 19.3262 16.3544L19.3294 16.2823L19.3302 16.2634L19.3302 16.2627C19.3611 15.7883 19.3601 15.0334 19.1158 14.3252C18.8635 13.5939 18.3355 12.8807 17.3222 12.6283Z" stroke="white"/>
</g>
<defs>
<clipPath id="clip0">
<rect width="20.4421" height="20" fill="white"/>
</clipPath>
</defs>
</svg>
