<svg width="19" height="24" viewBox="0 0 19 24" fill="currentColor" xmlns="http://www.w3.org/2000/svg">
<path d="M15.5934 10.564V6.25049C15.594 5.42988 15.4328 4.61719 15.1192 3.85888C14.8056 3.10056 14.3456 2.41147 13.7656 1.831C13.1855 1.25053 12.4968 0.790044 11.7387 0.475872C10.9806 0.1617 10.168 0 9.34743 0C8.52682 0 7.71425 0.1617 6.95617 0.475872C6.19808 0.790044 5.50932 1.25053 4.92927 1.831C4.34922 2.41147 3.88926 3.10056 3.57564 3.85888C3.26202 4.61719 3.1009 5.42988 3.1015 6.25049V10.564C2.2666 10.6016 1.47833 10.9596 0.900669 11.5636C0.323005 12.1675 0.000414705 12.9709 0 13.8067V24H18.6949V13.8067C18.6945 12.9709 18.3719 12.1675 17.7942 11.5636C17.2165 10.9596 16.4283 10.6016 15.5934 10.564ZM9.34743 2.20367C10.4203 2.20492 11.4489 2.6317 12.2075 3.39036C12.9661 4.14902 13.3928 5.17761 13.394 6.25049V10.5565H5.3009V6.25049C5.30208 5.17761 5.72878 4.14902 6.48739 3.39036C7.246 2.6317 8.27456 2.20492 9.34743 2.20367Z"/>
<path d="M11.0285 15.598C11.0286 15.3082 10.9537 15.0234 10.8113 14.7711C10.6688 14.5188 10.4635 14.3077 10.2153 14.1581C9.96716 14.0086 9.68455 13.9257 9.39493 13.9176C9.1053 13.9096 8.8185 13.9765 8.56238 14.112C8.30625 14.2474 8.08951 14.4468 7.93318 14.6908C7.77685 14.9347 7.68626 15.2149 7.67019 15.5042C7.65412 15.7935 7.71312 16.0821 7.84147 16.3418C7.96982 16.6016 8.16316 16.8237 8.4027 16.9867V20.6393H10.2931V16.9867C10.5197 16.8328 10.7052 16.6258 10.8333 16.3837C10.9615 16.1417 11.0285 15.8719 11.0285 15.598Z" fill="white"/>
</svg>
