<svg width="24" height="24" viewBox="0 0 24 24" fill="currentColor" xmlns="http://www.w3.org/2000/svg">
<path d="M2.52704 20.6856H3.70612C4.03171 20.6856 4.29566 20.4216 4.29566 20.096V13.6111H2.52704C2.20146 13.6111 1.9375 13.875 1.9375 14.2006V20.096C1.9375 20.4216 2.20146 20.6856 2.52704 20.6856Z"/>
<path d="M17.3443 2.99933C14.7395 2.99933 12.6279 5.11087 12.6279 7.71566C12.6279 10.3204 14.7395 12.432 17.3443 12.432C19.949 12.432 22.0606 10.3204 22.0606 7.71566C22.0606 5.11087 19.949 2.99933 17.3443 2.99933ZM18.3323 9.83746C18.2046 9.90129 18.0707 9.95155 17.9337 9.9896V10.1525C17.9337 10.4781 17.6698 10.7421 17.3442 10.7421C17.0186 10.7421 16.7546 10.4781 16.7546 10.1525V10.008C16.5092 9.94625 16.2804 9.84237 16.0865 9.69699C15.826 9.50166 15.7732 9.13213 15.9686 8.87163C16.164 8.61121 16.5335 8.55835 16.7939 8.75372C17.0298 8.93059 17.4833 8.94371 17.8049 8.78289C17.9342 8.71823 18.004 8.64041 18.004 8.60005C18.004 8.5295 18.004 8.51861 17.9255 8.47676C17.7717 8.39465 17.4997 8.34419 17.2366 8.29541C16.8855 8.23025 16.5224 8.16289 16.2077 7.99494C15.7482 7.7497 15.5053 7.34735 15.5053 6.83143C15.5053 6.31491 15.8151 5.86379 16.3551 5.59378C16.4831 5.52976 16.6173 5.4791 16.7546 5.44101V5.27897C16.7546 4.95338 17.0186 4.68943 17.3442 4.68943C17.6698 4.68943 17.9337 4.95338 17.9337 5.27897V5.42333C18.1792 5.48515 18.408 5.5891 18.6019 5.73449C18.8624 5.92986 18.9151 6.29938 18.7198 6.55984C18.5244 6.8203 18.155 6.87313 17.8944 6.67775C17.6582 6.50061 17.2043 6.48749 16.8824 6.64835C16.7524 6.71336 16.6844 6.78965 16.6844 6.83139C16.6844 6.90197 16.6844 6.91282 16.7629 6.95472C16.9167 7.03682 17.1887 7.08729 17.4517 7.13606C17.8029 7.20123 18.166 7.26859 18.4807 7.43653C18.9401 7.68178 19.183 8.08412 19.183 8.60005C19.1831 9.11606 18.8729 9.56709 18.3323 9.83746Z"/>
<path d="M12.5806 20.9999H12.7103C14.6911 20.9763 16.5894 20.4143 18.2638 19.4003L21.5534 17.1011C22.1075 16.7119 22.2137 15.981 21.8482 15.4622C21.4709 14.9197 20.7398 14.7901 20.2093 15.1674L17.0493 17.3841C16.0353 17.9736 14.7973 18.1033 13.6771 17.726L10.0416 16.5233C9.73507 16.429 9.56996 16.087 9.67611 15.7805C9.7704 15.4857 10.077 15.3207 10.3835 15.4032C10.3953 15.4032 14.4671 16.7238 14.4671 16.7238C15.1528 16.9293 15.7619 16.5413 15.9527 15.9692C16.1531 15.3442 15.8112 14.6839 15.1981 14.4835L9.65249 12.6677C8.43953 12.2262 6.80497 12.3174 5.47461 13.0613V19.6611L10.1005 20.7091C10.9479 20.8955 11.7794 20.9999 12.5806 20.9999Z"/>
</svg>
