<svg width="28" height="28" viewBox="0 0 28 28" fill="none" xmlns="http://www.w3.org/2000/svg">
<rect y="21" width="28" height="2" fill="#D80027"/>
<rect y="19" width="28" height="2" fill="#F0F0F0"/>
<rect y="17" width="28" height="2" fill="#D80027"/>
<rect y="15" width="28" height="2" fill="#F0F0F0"/>
<rect y="13" width="28" height="2" fill="#D80027"/>
<rect y="11" width="28" height="2" fill="#F0F0F0"/>
<rect y="9" width="28" height="2" fill="#D80027"/>
<rect y="5" width="28" height="2" fill="#D80027"/>
<rect y="7" width="28" height="2" fill="#F0F0F0"/>
<path d="M14 5H0V15.0514H14V5Z" fill="#2E52B2"/>
<path d="M5.45894 9.11743L5.23346 9.81109H4.50415L5.09428 10.2396L4.86881 10.9332L5.45894 10.5047L6.04869 10.9332L5.82327 10.2396L6.4134 9.81109H5.68403L5.45894 9.11743Z" fill="#F0F0F0"/>
<path d="M5.68403 12.3145L5.45894 11.6208L5.23346 12.3145H4.50415L5.09428 12.743L4.86881 13.4366L5.45894 13.0081L6.04869 13.4366L5.82327 12.743L6.4134 12.3145H5.68403Z" fill="#F0F0F0"/>
<path d="M2.60181 12.3145L2.37666 11.6208L2.15119 12.3145H1.42188L2.01201 12.743L1.78653 13.4366L2.37666 13.0081L2.96647 13.4366L2.74105 12.743L3.33107 12.3145H2.60181Z" fill="#F0F0F0"/>
<path d="M2.37666 9.11743L2.15119 9.81109H1.42188L2.01201 10.2396L1.78653 10.9332L2.37666 10.5047L2.96647 10.9332L2.74105 10.2396L3.33107 9.81109H2.60181L2.37666 9.11743Z" fill="#F0F0F0"/>
<path d="M5.45894 6.61426L5.23346 7.30797H4.50415L5.09428 7.7365L4.86881 8.43009L5.45894 8.00157L6.04869 8.43009L5.82327 7.7365L6.4134 7.30797H5.68403L5.45894 6.61426Z" fill="#F0F0F0"/>
<path d="M2.37666 6.61426L2.15119 7.30797H1.42188L2.01201 7.7365L1.78653 8.43009L2.37666 8.00157L2.96647 8.43009L2.74105 7.7365L3.33107 7.30797H2.60181L2.37666 6.61426Z" fill="#F0F0F0"/>
<path d="M8.54116 9.11743L8.31574 9.81109H7.58643L8.1765 10.2396L7.95114 10.9332L8.54116 10.5047L9.13102 10.9332L8.90554 10.2396L9.49568 9.81109H8.76636L8.54116 9.11743Z" fill="#F0F0F0"/>
<path d="M8.76636 12.3145L8.54116 11.6208L8.31574 12.3145H7.58643L8.1765 12.743L7.95114 13.4366L8.54116 13.0081L9.13102 13.4366L8.90554 12.743L9.49568 12.3145H8.76636Z" fill="#F0F0F0"/>
<path d="M11.8488 12.3145L11.6237 11.6208L11.3982 12.3145H10.6689L11.259 12.743L11.0335 13.4366L11.6237 13.0081L12.2135 13.4366L11.988 12.743L12.5781 12.3145H11.8488Z" fill="#F0F0F0"/>
<path d="M11.6237 9.11743L11.3982 9.81109H10.6689L11.259 10.2396L11.0335 10.9332L11.6237 10.5047L12.2135 10.9332L11.988 10.2396L12.5781 9.81109H11.8488L11.6237 9.11743Z" fill="#F0F0F0"/>
<path d="M8.54116 6.61426L8.31574 7.30797H7.58643L8.1765 7.7365L7.95114 8.43009L8.54116 8.00157L9.13102 8.43009L8.90554 7.7365L9.49568 7.30797H8.76636L8.54116 6.61426Z" fill="#F0F0F0"/>
<path d="M11.6237 6.61426L11.3982 7.30797H10.6689L11.259 7.7365L11.0335 8.43009L11.6237 8.00157L12.2135 8.43009L11.988 7.7365L12.5781 7.30797H11.8488L11.6237 6.61426Z" fill="#F0F0F0"/>
</svg>
