<svg width="20" height="20" viewBox="0 0 20 20" fill="currentColor" xmlns="http://www.w3.org/2000/svg">
<path d="M4.6738 4.0552L12.6468 1.8789L12.2246 1.02544C11.9484 0.470698 11.2746 0.241614 10.7198 0.517863L3.58228 4.0552H4.6738Z"/>
<path d="M15.1219 1.94189C15.0231 1.94189 14.9242 1.95537 14.8254 1.98232L12.9523 2.49439L7.23193 4.05531H13.7249H16.5548L16.2044 2.77064C16.0697 2.2698 15.616 1.94189 15.1219 1.94189Z"/>
<path d="M17.7249 4.84106H17.4688H17.1207H16.7726H14.1157H4.35261H3.07243H1.99439H1.7945H1.12521C0.770354 4.84106 0.453678 5.00502 0.247052 5.2633C0.152723 5.38233 0.0808535 5.51934 0.0404267 5.66981C0.0157215 5.76414 0 5.86296 0 5.96403V6.09878V7.37896V18.4761C0 19.096 0.503088 19.5991 1.12296 19.5991H17.7226C18.3425 19.5991 18.8456 19.096 18.8456 18.4761V15.343H12.1819C11.1286 15.343 10.2729 14.4873 10.2729 13.434V12.4054V12.0572V11.7091V10.9365C10.2729 10.42 10.4795 9.95058 10.8142 9.60695C11.1106 9.30148 11.5081 9.09485 11.9528 9.0432C12.027 9.03424 12.1033 9.02972 12.1797 9.02972H17.9113H18.2594H18.6075H18.8456V5.96403C18.8478 5.34415 18.3448 4.84106 17.7249 4.84106Z"/>
<path d="M19.6338 10.1035C19.5215 10.0002 19.389 9.9216 19.2408 9.86994C19.1262 9.83179 19.005 9.80933 18.8769 9.80933H18.8477H18.8253H18.4772H17.2217H12.1818C11.5619 9.80933 11.0588 10.3124 11.0588 10.9323V11.4915V11.8396V12.1877V13.432C11.0588 14.0519 11.5619 14.555 12.1818 14.555H18.8477H18.8769C19.005 14.555 19.1262 14.5325 19.2408 14.4943C19.389 14.4449 19.5215 14.364 19.6338 14.2607C19.8584 14.0564 19.9999 13.7599 19.9999 13.432V10.9323C19.9999 10.6044 19.8584 10.3079 19.6338 10.1035ZM14.5266 12.4056C14.5266 12.7155 14.275 12.9671 13.9651 12.9671H13.5923C13.2823 12.9671 13.0308 12.7155 13.0308 12.4056V12.0328C13.0308 11.8531 13.1139 11.6936 13.2464 11.5925C13.343 11.5184 13.462 11.4713 13.5923 11.4713H13.6866H13.9651C14.275 11.4713 14.5266 11.7228 14.5266 12.0328V12.4056Z"/>
</svg>
