<svg width="32" height="32" viewBox="0 0 32 32" fill="none" xmlns="http://www.w3.org/2000/svg">
    <path d="M27.2085 9.80045H20.2931V8.93426C20.2931 5.24544 16.7941 5.46199 16.7941 5.46199H15.14C11.452 5.46199 11.6428 8.96008 11.6428 8.96008V9.80045H4.70072C2.93668 9.80045 2.99998 11.537 2.99998 11.537V14.9268C2.99998 14.9268 10.4034 17.6204 15.9454 17.6204C22.0013 17.6204 28.9975 14.9002 28.9975 14.9002V11.537C28.9983 9.718 27.2085 9.80045 27.2085 9.80045ZM13.9773 8.8618C13.9773 7.12525 16.0154 7.09943 16.0154 7.09943C18.0826 7.09943 18.0193 8.88845 18.0193 8.88845V9.75714H13.9773V8.8618ZM18.1492 16.9765L13.8482 16.9799V15.3216H18.1492V16.9765Z"
          fill="#F19710"/>
    <path d="M28.9983 24.8031V16.152C28.9983 16.152 23.3664 18.7455 15.9088 18.7455C9.04837 18.7455 3 16.0712 3 16.0712V24.8022C3 26.5654 4.67242 26.5396 4.67242 26.5396H27.2368C29.1074 26.5405 28.9983 24.8031 28.9983 24.8031ZM18.1492 20.2281C18.1492 20.8236 17.6695 21.3041 17.0757 21.3041H14.9235C14.3297 21.3041 13.8483 20.8236 13.8483 20.2281V19.1187H18.1492V20.2281Z"
          fill="#F19710"/>
</svg>
