<svg width="32" height="32" viewBox="0 0 32 32" fill="none" xmlns="http://www.w3.org/2000/svg">
    <path fill-rule="evenodd" clip-rule="evenodd"
          d="M20 3H12V5H8V7H6V29H13V24H19V29H26V7H24V5H20V3ZM15 9H10V12H15V9ZM10 14H15V17H10V14ZM15 19H10V22H15V19ZM22 9H17V12H22V9ZM17 14H22V17H17V14ZM22 19H17V22H22V19Z"
          fill="#3FA2F7"/>
</svg>

<svg width="40" height="40" viewBox="0 0 40 40" fill="none" xmlns="http://www.w3.org/2000/svg">
<path fill-rule="evenodd" clip-rule="evenodd"
      d="M25.2308 4H15.3846V6.46154L10.4615 6.46154V8.92308H8V36H16.6154V29.8462H24V36H32.6154V8.92308H30.1538V6.46154L25.2308 6.46154V4ZM19.0769 11.3846H12.9231V15.0769H19.0769V11.3846ZM12.9231 17.5385H19.0769V21.2308H12.9231V17.5385ZM19.0769 23.6923H12.9231V27.3846H19.0769V23.6923ZM27.6923 11.3846H21.5385V15.0769H27.6923V11.3846ZM21.5385 17.5385H27.6923V21.2308H21.5385V17.5385ZM27.6923 23.6923H21.5385V27.3846H27.6923V23.6923Z"
      fill="#3FA2F7"/>
</svg>
