<svg width="32" height="32" viewBox="0 0 32 32" fill="none" xmlns="http://www.w3.org/2000/svg">
    <path fill-rule="evenodd" clip-rule="evenodd"
          d="M10.4491 10.8708C10.5526 12.2128 10.922 12.3863 11.2367 12.5342C11.4392 12.6293 11.6191 12.7138 11.6908 13.0923C11.9955 14.699 13.4361 15.861 14.3328 16.2624C14.8559 16.4965 15.3947 16.6139 15.9611 16.6233V16.6238L15.967 16.6235L15.9729 16.6238V16.6233C16.5393 16.6139 17.078 16.4965 17.6012 16.2624C18.4979 15.861 19.9385 14.699 20.2432 13.0923C20.315 12.7139 20.4948 12.6294 20.6973 12.5342C21.012 12.3864 21.3814 12.2128 21.4849 10.8708C21.4849 9.99177 20.9999 9.77302 20.9999 9.77302C20.9999 9.77302 21.2464 8.47193 21.343 7.47077C21.4627 6.22308 20.6055 3 16.0331 3C16.0219 3 16.0112 3.00033 16.0006 3.00067C15.9921 3.00093 15.9837 3.0012 15.975 3.00129L15.9729 3.00124V3.00102L15.9671 3.00113L15.9612 3.00102V3.00129L15.9591 3.00135L15.9347 3.00073L15.9347 3.00073C15.9236 3.00039 15.9126 3.00005 15.901 3.00005C11.3287 3.00005 10.4714 6.22314 10.5911 7.47083C10.6876 8.47198 10.9343 9.77307 10.9343 9.77307C10.9343 9.77307 10.4491 9.99177 10.4491 10.8708ZM23.0526 20.2382C21.7075 19.6298 20.6195 19.1633 20.5297 19.1347C20.5279 19.1341 20.5265 19.134 20.5248 19.1334C20.431 19.1004 20.3301 19.0821 20.2248 19.0821C19.8329 19.0821 19.5006 19.3299 19.3773 19.6754L19.3753 19.6742C18.78 21.0907 17.6866 23.6157 17.0076 24.8333L16.8441 21.4198C16.8441 21.4198 17.8637 19.2829 17.9753 19.0871C18.2381 18.6282 18.0014 18.2375 17.5089 18.2375H16.0411H16.039H16.0272H16.0252H16H15.9748H15.9727H15.9609H15.9589H14.4911C13.9985 18.2375 13.7619 18.6282 14.0246 19.0871C14.1363 19.2829 15.1559 21.4198 15.1559 21.4198L14.9924 24.8333C14.3134 23.6157 13.22 21.0909 12.6247 19.6742L12.6227 19.6754C12.4994 19.3301 12.1671 19.0821 11.7752 19.0821C11.6699 19.0821 11.569 19.1004 11.4752 19.1334C11.4735 19.1341 11.4721 19.1342 11.4703 19.1347C11.3099 19.1858 7.9671 20.6329 5.66081 21.7914C4.62509 22.3117 4 22.9588 4 23.6399V25.0001C4 27.2092 5.79086 29.0001 8 29.0001H15.9505H15.9609H15.9666H15.9728H15.9832H16H16.0169H16.0273H16.033H16.0391H16.0495H19V24C19 22.8954 19.8954 22 21 22H22C22 21.2382 22.4259 20.5759 23.0526 20.2382ZM24 22H28V23H24V22ZM23 23V22C23 21.4477 23.4477 21 24 21H28C28.5523 21 29 21.4477 29 22V23H31C31.5523 23 32 23.4477 32 24V26H26.5H25.5H20V24C20 23.4477 20.4477 23 21 23H23ZM27 27H32V31C32 31.5523 31.5523 32 31 32H21C20.4477 32 20 31.5523 20 31V27H25V27.5C25 27.7762 25.2239 28 25.5 28H26.5C26.7761 28 27 27.7762 27 27.5V27Z"
          fill="#F607FA"/>
</svg>
