<svg width="40" height="40" viewBox="0 0 40 40" fill="none" xmlns="http://www.w3.org/2000/svg">
<circle cx="20" cy="20" r="17" fill="white" stroke="#2358F9" stroke-width="4"/>
<path d="M17.5566 11.2676C17.5566 10.7389 17.7617 10.2923 18.1719 9.92773C18.5911 9.56315 19.0423 9.38086 19.5254 9.38086H19.9629C20.0996 9.4082 20.2135 9.42188 20.3047 9.42188C20.7422 9.42188 21.1296 9.61784 21.4668 10.0098C21.804 10.4017 21.9727 10.7754 21.9727 11.1309V11.4863C21.9544 11.5775 21.9453 11.6458 21.9453 11.6914C21.9453 12.0742 21.7311 12.4479 21.3027 12.8125C20.8743 13.1771 20.4004 13.3594 19.8809 13.3594H19.457C18.9466 13.3594 18.5046 13.1999 18.1309 12.8809C17.7663 12.5527 17.584 12.179 17.584 11.7598L17.5566 11.623V11.2676ZM20.1543 29.0547H18.8555C17.6432 29.0547 16.9141 29.0228 16.668 28.959C16.431 28.8861 16.3125 28.6901 16.3125 28.3711C16.3125 28.043 16.5404 27.651 16.9961 27.1953C17.4518 26.7396 17.7389 26.2839 17.8574 25.8281C17.9759 25.3633 18.0352 24.1647 18.0352 22.2324C18.0352 20.291 17.985 19.1471 17.8848 18.8008C17.7845 18.4544 17.4701 18.1582 16.9414 17.9121C16.4219 17.6569 16.1621 17.3561 16.1621 17.0098C16.1621 16.6543 16.4036 16.3945 16.8867 16.2305C17.9805 15.8659 19.1882 15.6836 20.5098 15.6836H20.7148C21.2435 15.6836 21.5488 15.9069 21.6309 16.3535C21.6764 16.6087 21.6992 18.14 21.6992 20.9473C21.6992 23.7454 21.7585 25.3861 21.877 25.8691C22.0046 26.3431 22.3236 26.849 22.834 27.3867C23.3444 27.9245 23.5996 28.2617 23.5996 28.3984V28.5625C23.5996 28.8906 22.4512 29.0547 20.1543 29.0547Z" fill="#2358F9"/>
</svg>
