<svg width="40" height="40" viewBox="0 0 40 40" fill="none" xmlns="http://www.w3.org/2000/svg">
<path d="M17.1497 6.4385L3.03306 30.0052C2.74201 30.5092 2.58801 31.0807 2.58638 31.6627C2.58475 32.2447 2.73555 32.817 3.02377 33.3227C3.312 33.8284 3.72761 34.2497 4.22924 34.5449C4.73088 34.8401 5.30106 34.9988 5.88306 35.0052H34.1164C34.6984 34.9988 35.2686 34.8401 35.7702 34.5449C36.2719 34.2497 36.6875 33.8284 36.9757 33.3227C37.2639 32.817 37.4147 32.2447 37.4131 31.6627C37.4115 31.0807 37.2574 30.5092 36.9664 30.0052L22.8497 6.4385C22.5526 5.94867 22.1343 5.5437 21.6351 5.26264C21.1358 4.98158 20.5726 4.83392 19.9997 4.83392C19.4268 4.83392 18.8636 4.98158 18.3644 5.26264C17.8652 5.5437 17.4468 5.94867 17.1497 6.4385V6.4385Z" stroke="#FE9B07" stroke-width="4" stroke-linecap="round" stroke-linejoin="round"/>
<path d="M20 15V21.6667" stroke="#FE9B07" stroke-width="4" stroke-linecap="round" stroke-linejoin="round"/>
<path d="M20 28.3301H20.0167" stroke="#FE9B07" stroke-width="4" stroke-linecap="round" stroke-linejoin="round"/>
</svg>
